<?xml version="1.0" standalone="no"?>
<!DOCTYPE svg PUBLIC "-//W3C//DTD SVG 1.1//EN" "http://www.w3.org/Graphics/SVG/1.1/DTD/svg11.dtd" >
<svg xmlns="http://www.w3.org/2000/svg" xmlns:xlink="http://www.w3.org/1999/xlink" version="1.1">
<metadata></metadata>
<defs>
<font id="code_new_romanitalic" horiz-adv-x="1126" >
<font-face units-per-em="2048" ascent="1521" descent="-527" />
<missing-glyph horiz-adv-x="500" />
<glyph horiz-adv-x="0" />
<glyph horiz-adv-x="682" />
<glyph />
<glyph unicode=" " />
<glyph unicode="!" d="M348 109q0 29 11 54t30 43.5t44 29t52 10.5q28 0 51 -10.5t40 -28t26.5 -41t9.5 -49.5q0 -29 -11 -53.5t-29.5 -42.5t-43 -28.5t-51.5 -10.5q-29 0 -52.5 10.5t-40.5 27.5t-26.5 40t-9.5 49zM459 383l176 1030h211l-234 -1030h-153z" />
<glyph unicode="&#x22;" d="M373 944l65 469h221l-122 -469h-164zM762 944l65 469h222l-123 -469h-164z" />
<glyph unicode="#" d="M14 367l27 130h226l105 350h-210l24 130h225l99 330h148l-99 -330h255l99 330h148l-99 -330h214l-26 -130h-227l-106 -350h210l-26 -130h-223l-110 -367h-148l110 367h-255l-110 -367h-148l111 367h-214zM415 497h254l106 350h-255z" />
<glyph unicode="$" d="M16 45l33 162q59 -20 127.5 -34t159.5 -19l151 456q-62 25 -113 56t-88 68.5t-57 83t-20 100.5q0 82 35.5 151t101.5 120t161 81.5t214 36.5l63 188h154l-66 -192q51 -5 100 -14.5t91 -20.5l-31 -154q-52 14 -103.5 25t-105.5 16l-145 -434q67 -31 121.5 -63.5t93 -70.5 t59.5 -82.5t21 -98.5q0 -35 -8 -78t-29.5 -86.5t-59 -85t-97 -75t-143.5 -55.5t-198 -26l-80 -236h-153l80 236q-81 6 -149.5 18.5t-119.5 26.5zM397 946q0 -23 6.5 -45.5t23 -44t45 -42t71.5 -38.5l127 381q-126 -9 -199.5 -63t-73.5 -148zM489 154q85 4 142.5 26 t91.5 54.5t48.5 72t14.5 78.5q0 22 -7.5 44t-26.5 43.5t-50 42t-79 40.5z" />
<glyph unicode="%" d="M-86 0l1202 1413h174l-1204 -1413h-172zM145 1055q0 66 21 132.5t62 119.5t102 86.5t141 33.5q55 0 96.5 -16t69 -45.5t41.5 -70.5t14 -91q0 -62 -19 -128.5t-59 -121.5t-100.5 -90t-144.5 -35q-61 0 -103.5 18t-69.5 49t-39 72t-12 87zM292 1063q0 -20 3.5 -39t14 -34 t28.5 -24.5t47 -9.5q41 0 71 23t50 58.5t29.5 78t9.5 80.5q0 18 -3.5 36.5t-13.5 33.5t-27.5 24.5t-45.5 9.5q-45 0 -76 -26.5t-50.5 -63.5t-28 -78t-8.5 -69zM510 211q0 66 21 132.5t62 120t102 87t141 33.5q55 0 96.5 -16t69 -45.5t41.5 -71t14 -91.5q0 -62 -19.5 -128 t-59 -121t-100.5 -90t-145 -35q-61 0 -103.5 18t-69 48.5t-38.5 71.5t-12 87zM657 219q0 -20 4 -39t14 -34t28 -24t47 -9q40 0 70 23t50 58t30 77.5t10 80.5q0 18 -3.5 36.5t-13 33.5t-28 25t-46.5 10q-45 0 -76 -26.5t-50 -64t-27.5 -78.5t-8.5 -69z" />
<glyph unicode="&#x26;" d="M18 305q0 83 27.5 149t74 119t107.5 95t129 77l-16 27q-32 54 -50 112.5t-18 123.5q0 78 27.5 146.5t79 119.5t124.5 80.5t165 29.5q77 0 133.5 -21.5t93 -58t54.5 -86t18 -104.5q0 -76 -30 -135t-81.5 -106.5t-120 -87.5t-145.5 -78l192 -320q34 60 58.5 134t40.5 161 h176q-26 -134 -73 -244.5t-112 -195.5l146 -242h-217l-66 109q-78 -62 -167 -92.5t-183 -30.5q-87 0 -155 21.5t-115 62t-72 100t-25 135.5zM201 334q0 -100 53.5 -149.5t153.5 -49.5q66 0 130 26t121 77l-231 387q-50 -26 -91.5 -55.5t-71.5 -64.5t-47 -77t-17 -94z M453 1026q0 -24 3 -46t10.5 -44.5t20 -48.5t31.5 -58l2 -4q55 27 103.5 55t84.5 60.5t57 72t21 89.5q0 60 -35 97.5t-104 37.5q-47 0 -83 -18t-61 -47.5t-37.5 -67.5t-12.5 -78z" />
<glyph unicode="'" d="M563 944l66 469h229l-123 -469h-172z" />
<glyph unicode="(" d="M281 319q0 146 36.5 293.5t117 294t208.5 291.5t311 287l84 -107q-169 -141 -280.5 -280.5t-178 -273t-93.5 -258.5t-27 -238q0 -174 58 -333t184 -317l-119 -98q-149 165 -225 351t-76 388z" />
<glyph unicode=")" d="M93 -313q169 141 281 280.5t178.5 273t93.5 258.5t27 238q0 174 -58 332.5t-184 316.5l119 99q149 -165 225 -351t76 -389q0 -146 -36.5 -293t-117.5 -293.5t-209 -291.5t-311 -287z" />
<glyph unicode="*" d="M260 838l307 151l-307 154l70 117l284 -191l-26 344h143l-22 -344l280 193l70 -123l-307 -152l305 -147l-68 -119l-280 188l22 -344h-143l22 342l-286 -186z" />
<glyph unicode="+" d="M76 469l30 152h394l80 405h172l-80 -405h393l-31 -152h-393l-82 -408h-172l82 408h-393z" />
<glyph unicode="," d="M80 -205q51 -2 107 10t102 38t76 65.5t30 93.5q0 26 -8.5 44.5t-18 35.5t-18 37t-8.5 49q0 37 13.5 66t34.5 48.5t47 29.5t52 10q67 0 109.5 -44t42.5 -131q0 -50 -14.5 -105t-44.5 -109.5t-75.5 -104t-108 -87.5t-142 -60.5t-176.5 -22.5v137z" />
<glyph unicode="." d="M315 141q0 37 14 69t38 55t55 36.5t65 13.5q36 0 65.5 -13t50.5 -35t32.5 -51.5t11.5 -61.5q0 -36 -14 -67.5t-37.5 -55t-55 -36.5t-65.5 -13q-35 0 -64 13t-50.5 35t-33.5 50.5t-12 60.5z" />
<glyph unicode="/" d="M-39 -215l1014 1628h178l-1014 -1628h-178z" />
<glyph unicode="0" d="M92 420q0 51 6.5 116.5t21 138.5t38.5 150t59.5 149t83 136t109.5 111.5t139 75.5t172 28q84 0 152.5 -26.5t117 -81t75 -137t26.5 -193.5q0 -51 -6.5 -117t-21 -139t-38.5 -149.5t-59.5 -148.5t-83 -136t-109.5 -111.5t-139.5 -75.5t-171.5 -28q-84 0 -152.5 26.5 t-117 81t-75 137t-26.5 193.5zM272 365q5 -52 18.5 -95t39 -74.5t63.5 -49t92 -17.5q67 0 123 29t101 77.5t79.5 113.5t59.5 136.5t40 146.5t21 144zM274 543l637 409q-6 49 -21 90.5t-40.5 71.5t-63 47t-88.5 17q-67 0 -122 -28t-99.5 -75.5t-79 -111t-59.5 -134 t-41 -144.5t-23 -142z" />
<glyph unicode="1" d="M74 0l32 162h336l189 944l-340 -166l-43 154l459 219h157l-229 -1151h293l-33 -162h-821z" />
<glyph unicode="2" d="M45 0l31 156l405 340q114 96 184.5 168t109.5 129.5t53 105t14 94.5q0 80 -45 129t-140 49q-83 0 -158.5 -37t-144.5 -96l-86 115q45 39 92.5 70.5t99 54t108 35t118.5 12.5q77 0 140 -22t108 -63.5t69.5 -99.5t24.5 -130q0 -79 -22.5 -148.5t-73.5 -140.5t-133 -149 t-201 -175l-285 -231h625l-33 -166h-860z" />
<glyph unicode="3" d="M61 2l31 152q59 -10 122.5 -15.5t135.5 -5.5q87 0 153 14t114 37t79.5 53.5t50 63t26 65.5t7.5 62q0 44 -20.5 76.5t-58 54.5t-91 32.5t-118.5 10.5h-150l29 143h137q64 0 123.5 19t105 55.5t72.5 89t27 119.5q0 75 -53 110.5t-158 35.5q-66 0 -134.5 -13t-152.5 -39v152 q37 12 77.5 21.5t82 16t81 10t74.5 3.5q92 0 161.5 -19t115.5 -53.5t69 -83t23 -108.5q0 -44 -12 -95t-43.5 -102t-86.5 -98.5t-141 -83.5q47 -9 88 -29t72 -50.5t48.5 -72t17.5 -92.5q0 -48 -15 -100.5t-46.5 -103t-82 -96.5t-121 -80.5t-163 -55t-209.5 -20.5 q-78 0 -146 5.5t-121 14.5z" />
<glyph unicode="4" d="M-2 289l31 153l714 865h267l-174 -865h223l-31 -153h-223l-57 -289h-179l58 289h-629zM217 442h440l140 697z" />
<glyph unicode="5" d="M76 2l30 154q26 -6 56.5 -10.5t62 -7.5t63 -4t60.5 -1q94 0 172 25t134.5 69.5t88 104.5t31.5 129q0 88 -73 133t-226 45h-250l135 668h705l-31 -152h-540l-74 -367h104q89 0 168.5 -17t139 -53.5t94.5 -95t35 -141.5q0 -104 -47.5 -195t-131.5 -158.5t-199 -106.5 t-251 -39q-33 0 -68 1.5t-68.5 4t-64.5 6t-55 8.5z" />
<glyph unicode="6" d="M113 369q0 53 6.5 121.5t22.5 144.5t44.5 155.5t73 154t107 140.5t146 115.5t191 78t242.5 28.5h135l-30 -152h-133q-132 0 -226.5 -33t-160.5 -89.5t-107 -131.5t-66 -158l-8 -18q71 35 150 57.5t159 22.5q91 0 157.5 -22t109.5 -62t63.5 -95t20.5 -122q0 -106 -40 -201 t-111.5 -166t-171 -113t-218.5 -42q-172 0 -264 95t-92 292zM293 365q0 -69 13.5 -115t39 -73.5t63 -39.5t85.5 -12q77 0 139 31t105 82t66 116t23 133q0 85 -48.5 131t-151.5 46q-40 0 -82 -7.5t-82.5 -20t-78.5 -29t-69 -34.5q-12 -46 -17 -101t-5 -107z" />
<glyph unicode="7" d="M152 0l786 1145h-694l32 162h885l-33 -162l-768 -1145h-208z" />
<glyph unicode="8" d="M76 266q0 56 16 107t55.5 100t106.5 97.5t170 101.5q-94 52 -140 118.5t-46 153.5q0 72 30 141t90.5 122t151.5 85.5t213 32.5q91 0 159 -19t113 -53.5t67.5 -83t22.5 -106.5q0 -54 -15 -102t-51.5 -94.5t-99 -91.5t-157.5 -93q103 -57 158 -129.5t55 -171.5 q0 -77 -33 -149t-98.5 -127.5t-163 -89t-227.5 -33.5q-96 0 -167 21.5t-117.5 59t-69.5 89.5t-23 114zM264 285q0 -78 57 -116t162 -38q58 0 112.5 15t97 44t68 71.5t25.5 96.5q0 31 -10.5 61.5t-34 59.5t-62 57.5t-95.5 57.5q-97 -44 -159 -80.5t-98 -72t-49.5 -73 t-13.5 -83.5zM422 963q0 -29 10 -55t31.5 -50t56 -48t82.5 -50q91 45 149 80t91.5 67.5t46 64.5t12.5 70q0 65 -51 101.5t-150 36.5q-62 0 -113 -14t-88 -41.5t-57 -68t-20 -93.5z" />
<glyph unicode="9" d="M78 0l31 152h100q134 0 238 31t180 85.5t125 130t73 164.5l6 19q-68 -35 -145.5 -57.5t-161.5 -22.5q-99 0 -166.5 25t-109.5 67t-60 97t-18 114q0 101 38 195t108 166t169.5 115.5t223.5 43.5q169 0 262.5 -95.5t93.5 -297.5q0 -49 -5.5 -115t-21.5 -141t-44.5 -154 t-74 -154t-110 -142t-153 -117t-202.5 -79.5t-259 -29.5h-117zM352 821q0 -33 9.5 -65t33 -57t63 -40.5t99.5 -15.5q40 0 82 7t82 19t76.5 28t66.5 34q11 53 16 111t5 106q0 66 -13.5 111t-39 72t-63 39t-85.5 12q-81 0 -143 -33t-104 -84.5t-63.5 -116t-21.5 -127.5z" />
<glyph unicode=":" d="M334 129q0 34 13 63t35 50.5t50.5 34t59.5 12.5q32 0 59.5 -12t47.5 -33t31 -48t11 -57t-12.5 -58.5t-34.5 -50t-51 -35t-62 -13.5t-60 12t-46.5 32t-30 47t-10.5 56zM481 862q0 34 13 63t35 50.5t50.5 34t59.5 12.5q32 0 59.5 -12t47.5 -33t31 -48t11 -57t-12.5 -58 t-34 -50t-50.5 -35.5t-62 -13.5t-60.5 12t-47 32t-30 47t-10.5 56z" />
<glyph unicode=";" d="M92 -205q51 -2 107 10t102.5 38t76.5 65.5t30 93.5q0 26 -8.5 44.5t-18.5 35.5t-18.5 37t-8.5 49q0 37 13.5 66t34.5 48.5t47.5 29.5t52.5 10q66 0 108.5 -44t42.5 -131q0 -50 -14.5 -105t-44.5 -109.5t-75.5 -104t-108 -87.5t-142 -60.5t-176.5 -22.5v137zM481 862 q0 34 13 63t35 50.5t50.5 34t59.5 12.5q32 0 59.5 -12t47.5 -33t31 -48t11 -57t-12.5 -58t-34 -50t-50.5 -35.5t-62 -13.5t-60.5 12t-47 32t-30 47t-10.5 56z" />
<glyph unicode="&#x3c;" d="M143 551l777 555l94 -119l-635 -446l455 -455l-123 -102z" />
<glyph unicode="=" d="M90 298l29 147h860l-29 -147h-860zM160 646l28 147h861l-29 -147h-860z" />
<glyph unicode="&#x3e;" d="M125 102l635 447l-455 455l123 102l567 -567l-776 -555z" />
<glyph unicode="?" d="M276 109q0 29 11 54t30 43.5t44 29t53 10.5q27 0 50.5 -10.5t40.5 -28t26.5 -41t9.5 -49.5q0 -29 -11 -53.5t-30 -42.5t-43 -28.5t-51 -10.5q-29 0 -52.5 10.5t-41 27.5t-27 40t-9.5 49zM387 383l64 383h102q87 0 141 24.5t83.5 61t39.5 78.5t10 78q0 64 -25.5 110.5 t-71 77.5t-109 46t-138.5 15h-32l30 156h25q130 0 227 -32.5t160.5 -87t95 -125t31.5 -146.5q0 -83 -27.5 -153.5t-81.5 -123t-134 -83t-185 -33.5l-53 -246h-152z" />
<glyph unicode="@" d="M-41 78q0 157 30.5 317.5t85 310.5t131.5 281t169.5 228.5t198.5 153.5t219 56q189 0 280.5 -119t91.5 -350q0 -103 -12.5 -209.5t-36.5 -205.5t-59 -186t-81 -152t-101.5 -102.5t-120.5 -37.5q-44 0 -74 12.5t-47.5 33.5t-23 47.5t0.5 54.5q-42 -77 -91.5 -112.5 t-106.5 -35.5q-36 0 -66 10t-51.5 32.5t-34 59.5t-12.5 91q0 60 11.5 133t35 147t58.5 144t81.5 124t104.5 87t127 33q43 0 75.5 -9t46.5 -18l136 31l-156 -492q-21 -69 -30 -115.5t-8.5 -75t10.5 -40.5t26 -12q30 0 61 32.5t60 88.5t54.5 130t44 157t29.5 170.5t11 170.5 q0 177 -60 269t-192 92q-84 0 -167 -52.5t-158.5 -142t-139.5 -209t-111 -253.5t-73.5 -275.5t-26.5 -274.5q0 -197 72.5 -293t210.5 -96q45 0 86 5t81.5 15.5t82 25.5t86.5 36v-129q-174 -76 -350 -76q-206 0 -307 124t-101 370zM403 264q0 -38 9.5 -54.5t29.5 -16.5 q17 0 39 16t48.5 57.5t57 112.5t64.5 182l62 203q-6 12 -20 21.5t-42 9.5q-37 0 -70 -29.5t-60.5 -77t-49.5 -107t-37 -118.5t-23 -111.5t-8 -87.5z" />
<glyph unicode="A" d="M-92 0l696 1307h244l166 -1307h-189l-32 285h-545l-150 -285h-190zM330 444h442l-80 699z" />
<glyph unicode="B" d="M55 0l262 1307h363q193 0 291 -64.5t98 -189.5q0 -55 -14.5 -110.5t-47.5 -104.5t-87 -89t-132 -63q44 -8 82 -27t66.5 -49t44.5 -70t16 -91t-13 -104t-43 -103t-75.5 -94t-110.5 -77t-151 -52t-194 -19h-355zM264 150h174q79 0 137 14t99 37.5t67 53t40.5 61t20 61.5 t5.5 55q0 79 -67 123.5t-195 44.5h-191zM383 748h170q97 0 160 27t100.5 67t52.5 86.5t15 85.5q0 31 -12 57.5t-39 45.5t-71.5 29.5t-109.5 10.5h-184z" />
<glyph unicode="C" d="M96 442q0 96 19 198.5t58.5 200.5t99.5 185.5t141 153.5t184 104.5t229 38.5q91 0 171.5 -15.5t146.5 -47.5l-35 -175q-63 39 -133 59.5t-160 20.5q-94 0 -170 -32t-134.5 -85.5t-101 -124t-69.5 -148t-40 -157t-13 -151.5q0 -324 313 -324q84 0 170.5 19.5t163.5 54.5 l-33 -168q-85 -32 -165.5 -48.5t-168.5 -16.5q-227 0 -350 114t-123 344z" />
<glyph unicode="D" d="M6 0l262 1307h328q252 0 380 -107.5t128 -333.5q0 -40 -5 -99t-19 -127t-39.5 -142.5t-66.5 -145.5t-100 -135t-139.5 -112t-184.5 -76.5t-237 -28.5h-307zM215 154h121q98 0 175 23t136.5 62.5t102.5 91.5t73.5 110t49.5 118t29.5 115.5t14 103t3.5 80.5 q0 81 -21.5 137.5t-64.5 92.5t-108 52.5t-151 16.5h-159z" />
<glyph unicode="E" d="M98 0l262 1307h744l-31 -150h-565l-82 -405h543l-29 -150h-543l-90 -450h565l-30 -152h-744z" />
<glyph unicode="F" d="M102 0l263 1307h737l-31 -152h-555l-86 -424h526l-28 -149h-527l-116 -582h-183z" />
<glyph unicode="G" d="M72 451q0 105 21.5 211t65 203t107.5 181t149.5 146t191 97.5t231.5 35.5q88 0 169.5 -15.5t147.5 -49.5l-35 -177q-32 19 -64.5 34.5t-68 26t-74.5 16t-84 5.5q-101 0 -183 -31.5t-145 -85t-109 -124t-76 -149t-44 -159.5t-14 -155q0 -76 19 -136t59 -101t102.5 -63 t149.5 -22q19 0 43 2t48.5 5.5t47 8.5t39.5 11l84 416h-266l28 147h443l-133 -668q-90 -38 -186.5 -58.5t-184.5 -20.5q-112 0 -201 29t-150.5 87.5t-94.5 146.5t-33 206z" />
<glyph unicode="H" d="M8 0l262 1307h179l-111 -553h549l110 553h179l-263 -1307h-178l121 600h-549l-121 -600h-178z" />
<glyph unicode="I" d="M70 0l30 152h301l201 1005h-301l31 150h782l-31 -150h-301l-200 -1005h301l-31 -152h-782z" />
<glyph unicode="J" d="M35 111l104 127q50 -43 111 -70.5t139 -27.5q54 0 100.5 16.5t83.5 50.5t63 85.5t39 117.5l149 743h-497l31 154h678l-186 -928q-15 -78 -51 -148t-96 -124t-144.5 -87.5t-189.5 -33.5q-97 0 -179.5 31t-154.5 94z" />
<glyph unicode="K" d="M53 0l262 1307h179l-121 -600l596 600h225l-653 -631l395 -676h-211l-363 649l-131 -649h-178z" />
<glyph unicode="L" d="M131 0l262 1307h180l-232 -1155h572l-30 -152h-752z" />
<glyph unicode="M" d="M-53 0l325 1307h203l78 -492l22 -166l91 166l282 492h226l-199 -1307h-174l137 815l51 313l-98 -182l-295 -520h-123l-86 500l-20 202l-70 -327l-182 -801h-168z" />
<glyph unicode="N" d="M19 0l263 1307h221l207 -772l71 -299l140 700l75 371h166l-262 -1307h-223l-217 815l-60 262l-131 -659l-84 -418h-166z" />
<glyph unicode="O" d="M61 422q0 101 18 207.5t54.5 206.5t91.5 189t128.5 155.5t166.5 105.5t205 39q199 0 299 -115t100 -325q0 -101 -18 -207.5t-54.5 -207t-91 -189.5t-128.5 -155.5t-166.5 -105t-204.5 -38.5q-200 0 -300 114.5t-100 325.5zM244 434q0 -68 13.5 -122.5t42 -93.5t73.5 -60 t108 -21q81 0 147 36.5t117.5 97t88.5 138t61 159t35.5 161t11.5 143.5q0 68 -13.5 123t-42.5 93.5t-73.5 60t-107.5 21.5q-81 0 -147 -37t-117.5 -97.5t-88.5 -138t-61 -159t-35.5 -161t-11.5 -143.5z" />
<glyph unicode="P" d="M55 0l262 1307h359q89 0 166.5 -18.5t135.5 -57.5t91 -100t33 -146q0 -62 -17 -124.5t-51 -119.5t-84.5 -107t-117 -86.5t-150 -57.5t-182.5 -21h-172l-95 -469h-178zM358 619h158q79 0 139.5 16.5t105 44t74 63t47.5 74.5t25.5 78.5t7.5 73.5q0 90 -65 139t-195 49h-190 z" />
<glyph unicode="Q" d="M61 422q0 101 18 207.5t54.5 206.5t91.5 189t128.5 155.5t166.5 105.5t205 39q199 0 299 -115t100 -325q0 -96 -16 -196.5t-48.5 -196t-82 -182t-115.5 -154.5t-149.5 -113t-184.5 -57v-15q0 -34 7 -63q9 -36 30.5 -61.5t56.5 -39.5t85 -14q48 0 97.5 16t104.5 54 l72 -123q-77 -54 -151 -77t-148 -23q-80 0 -144 22t-107 66t-61 110q-12 41 -12 90q0 30 4 62q-150 26 -225.5 137.5t-75.5 294.5zM244 434q0 -68 13.5 -122.5t42 -93.5t73.5 -60t108 -21q81 0 147 36.5t117.5 97t88.5 138t61 159t35.5 161t11.5 143.5q0 68 -13.5 123 t-42.5 94t-73.5 60t-107.5 21q-81 0 -147 -37t-117.5 -97.5t-88.5 -138t-61 -159t-35.5 -161t-11.5 -143.5z" />
<glyph unicode="R" d="M68 0l262 1307h338q97 0 168.5 -19t118.5 -54.5t69.5 -87t22.5 -116.5q0 -77 -25 -143t-70.5 -118.5t-110.5 -90t-145 -57.5q51 -19 79.5 -71t49.5 -130l119 -420h-192l-111 418q-13 48 -30.5 79.5t-41 50t-54 26.5t-69.5 8h-84l-116 -582h-178zM391 725h133 q81 0 143.5 22t105 59.5t65 87.5t22.5 107q0 156 -211 156h-172z" />
<glyph unicode="S" d="M14 27l33 172q71 -28 161.5 -44t209.5 -16q97 0 165 18t111 49t62.5 73t19.5 90q0 46 -24 79.5t-63 61.5t-89 51.5t-102.5 48.5t-102.5 54t-89 66.5t-63 87.5t-24 116q0 76 35.5 146.5t105 125t171 87t233.5 32.5q33 0 73 -3t81 -8.5t80 -12.5t71 -15l-33 -160 q-72 22 -147.5 33.5t-147.5 11.5q-87 0 -150 -16.5t-104 -45.5t-61 -68.5t-20 -84.5t24 -78.5t63.5 -60.5t89.5 -50.5t102.5 -48.5t102.5 -54t89.5 -67.5t63.5 -89t24 -118.5q0 -86 -37.5 -160.5t-110.5 -129t-181.5 -86t-250.5 -31.5q-52 0 -104.5 4t-101.5 10t-91.5 14 t-73.5 17z" />
<glyph unicode="T" d="M215 1155l31 152h954l-31 -152h-387l-231 -1155h-180l231 1155h-387z" />
<glyph unicode="U" d="M82 245q-4 28 -3 59q0 58 13 124l176 879h178l-174 -865q-13 -68 -13 -121v-14q2 -58 26 -97t72 -59t124 -20q142 0 228.5 82t115.5 231l174 863h179l-172 -852q-22 -108 -67.5 -195.5t-114 -149t-158.5 -95t-201 -33.5q-122 0 -202.5 32t-125.5 90.5t-55 140.5z" />
<glyph unicode="V" d="M164 1307h192l107 -881l26 -258l136 258l458 881h199l-707 -1307h-239z" />
<glyph unicode="W" d="M33 0l172 1307h166l-127 -889l-35 -244l104 207l256 485h123l78 -520l27 -172l41 180l241 953h162l-350 -1307h-227l-70 465l-14 149l-80 -161l-240 -453h-227z" />
<glyph unicode="X" d="M-84 0l567 668l-270 639h203l200 -492l400 492h213l-529 -631l299 -676h-217l-211 528l-426 -528h-229z" />
<glyph unicode="Y" d="M160 1307h207l163 -478l58 -192l123 174l362 496h213l-641 -840l-94 -467h-180l94 471z" />
<glyph unicode="Z" d="M8 0l27 133l868 1012h-647l33 162h872l-28 -140l-863 -1001h674l-33 -166h-903z" />
<glyph unicode="[" d="M160 -410l372 1858h493l-28 -140h-327l-316 -1578h327l-28 -140h-493z" />
<glyph unicode="\" d="M344 1413h162l358 -1628h-162z" />
<glyph unicode="]" d="M103 -410l28 140h325l316 1578h-325l28 140h493l-372 -1858h-493z" />
<glyph unicode="^" d="M152 668l495 639h141l256 -639h-163l-189 501l-373 -501h-167z" />
<glyph unicode="_" d="M-184 -410l28 144h1127l-29 -144h-1126z" />
<glyph unicode="`" d="M0 1004zM315 1413h252l230 -242h-174z" />
<glyph unicode="a" d="M92 319q0 144 37.5 270.5t110.5 221.5t180.5 150t247.5 55q65 0 124 -8.5t113 -24.5l158 39l-113 -561q-4 -19 -8.5 -50t-10.5 -83.5t-15 -132t-21 -195.5h-164l25 231q-69 -120 -167.5 -184.5t-213.5 -64.5q-72 0 -125.5 24t-88.5 68.5t-52 106.5t-17 138zM268 336 q0 -95 33 -149t107 -54q43 0 86 20t84 55t77.5 82.5t67 102t52.5 114t34 118.5l41 206q-47 20 -96.5 31.5t-91.5 11.5q-82 0 -143 -28t-105 -73t-72 -102.5t-44.5 -117.5t-23 -117t-6.5 -100z" />
<glyph unicode="b" d="M72 70l268 1343h174l-78 -389l-65 -242q31 56 71 100.5t87.5 75.5t101 47.5t110.5 16.5q72 0 125.5 -24.5t88.5 -68.5t52 -106.5t17 -138.5q0 -144 -37.5 -270.5t-110.5 -221t-180.5 -149.5t-246.5 -55q-110 0 -202 22t-175 60zM266 172q47 -20 97 -31.5t92 -11.5 q82 0 143 28t104.5 73t71.5 103t44.5 118t23 116.5t6.5 100.5q0 96 -32.5 149t-106.5 53q-43 0 -86 -20t-84 -55t-77.5 -82t-67 -100.5t-52.5 -110.5t-33 -113z" />
<glyph unicode="c" d="M141 356q0 152 48 274.5t131 208.5t194 132.5t236 46.5q72 0 144.5 -11t137.5 -36l-31 -158q-55 26 -125 41.5t-135 15.5q-101 0 -178.5 -42t-130.5 -111.5t-80.5 -158t-27.5 -181.5q0 -122 66 -183t194 -61q66 0 138.5 14t137.5 41v-147q-84 -29 -156 -42t-147 -13 q-200 0 -308 92.5t-108 277.5z" />
<glyph unicode="d" d="M92 319q0 144 37.5 270.5t110.5 221.5t180.5 150t247.5 55q72 0 121.5 -6t93.5 -19l84 422h174l-191 -952q-4 -19 -8.5 -50t-10.5 -83.5t-15 -132t-21 -195.5h-164l25 231q-69 -120 -167.5 -184.5t-213.5 -64.5q-72 0 -125.5 24t-88.5 68.5t-52 106.5t-17 138zM268 336 q0 -95 33 -149t107 -54q43 0 86 20t84 55t77.5 82.5t67 102t52.5 114t34 118.5l41 206q-47 20 -96.5 31.5t-91.5 11.5q-82 0 -143 -28t-105 -73t-72 -102.5t-44.5 -117.5t-23 -117t-6.5 -100z" />
<glyph unicode="e" d="M102 350q0 138 43 260t119 213.5t180.5 145t227.5 53.5q85 0 151.5 -20t112.5 -55t70 -82.5t24 -102.5q0 -72 -30.5 -130t-97 -99.5t-171.5 -64t-254 -22.5h-188q-5 -26 -7.5 -49t-2.5 -45q0 -109 65 -167t201 -58q88 0 174.5 13t154.5 30v-143q-75 -20 -168.5 -32.5 t-189.5 -12.5q-212 0 -313 94.5t-101 273.5zM315 580h160q111 0 183.5 13.5t115 36.5t59.5 53t17 62q0 28 -11 53t-34.5 44t-59 30t-83.5 11q-65 0 -118.5 -21.5t-96.5 -61t-76 -95.5t-56 -125z" />
<glyph unicode="f" d="M-104 -416l28 150q46 -6 86 -6q119 0 190 61t97 193l147 731h-323l29 145h323l33 166q40 199 156 300t325 101q53 0 116.5 -6t125.5 -18l-31 -148q-57 13 -114.5 20t-114.5 7q-119 0 -190 -64t-97 -192l-33 -166h441l-29 -145h-440l-148 -731q-21 -104 -59 -179.5 t-96.5 -125t-139 -73.5t-186.5 -24q-20 0 -48 1t-48 3zM0 1004z" />
<glyph unicode="g" d="M37 -322l88 128q57 -39 122.5 -63t143.5 -24t128 21.5t81.5 57.5t49.5 83t30 99q15 65 31.5 126t33.5 115q-30 -56 -70.5 -100.5t-87.5 -75t-101 -47t-111 -16.5q-72 0 -125.5 24t-88.5 68.5t-52 106.5t-17 138q0 144 37.5 270.5t110.5 221.5t180.5 150t247.5 55 q65 0 124 -8.5t113 -24.5l158 39l-215 -1075q-16 -81 -49.5 -148t-90.5 -116t-140 -76t-192 -27q-117 0 -203 31t-136 67zM268 336q0 -95 33 -149t107 -54q43 0 86 20t83.5 55t77.5 82t67 100.5t52 110.5t33 113l43 217q-47 20 -96.5 31.5t-91.5 11.5q-82 0 -143 -28 t-105 -73t-72 -102.5t-44.5 -117.5t-23 -117t-6.5 -100z" />
<glyph unicode="h" d="M57 0l283 1413h174l-82 -409l-55 -213q28 52 67 94.5t85.5 73t99.5 47t110 16.5q159 0 225 -96q42 -62 43 -160q0 -55 -14 -123l-129 -643h-174l129 641q12 57 12 99q1 48 -15 78q-28 54 -109 54q-64 0 -127.5 -44t-118.5 -114.5t-95.5 -158.5t-58.5 -176l-76 -379h-174z " />
<glyph unicode="i" d="M168 786v154q69 38 145.5 60t163.5 22q71 0 119 -20t73.5 -63.5t28.5 -111.5q0 -9 1 -19q0 -62 -17 -146l-68 -336q-11 -58 -11 -96t10.5 -61t29.5 -32.5t45 -9.5q68 0 134 26.5t134 63.5v-154q-69 -38 -145.5 -59.5t-163.5 -21.5q-71 0 -119 20t-73.5 63.5t-28.5 111.5 v19q0 62 16 146l68 336q12 55 12 92q0 40 -11 65q-10 23 -29.5 32.5t-45.5 9.5q-68 0 -134 -26.5t-134 -64.5zM543 1282q0 31 11 57t30.5 45t45.5 30t56 11q29 0 53 -10.5t41.5 -28t27 -41.5t9.5 -51q0 -31 -11 -57t-30.5 -45t-45.5 -30t-56 -11q-29 0 -53.5 10.5t-41.5 28 t-26.5 41.5t-9.5 51z" />
<glyph unicode="j" d="M-92 -279l112 113q44 -48 108.5 -78t139.5 -30q111 0 189 75t112 242l125 623q13 62 13 102q0 44 -13 68q-13 23 -38 32t-60 9q-87 0 -171 -27t-175 -68v152q89 41 181.5 64.5t203.5 23.5q84 0 138.5 -21t82 -64.5t30.5 -110.5v-19q0 -61 -16 -141l-133 -664 q-21 -108 -67.5 -187t-110 -131.5t-140.5 -78t-161 -25.5q-59 0 -110.5 11t-95 30t-79.5 44.5t-65 55.5zM715 1282q0 31 11 57t30.5 45t45.5 30t56 11q29 0 53 -10.5t41.5 -28t27 -41.5t9.5 -51q0 -31 -11 -57t-30.5 -45t-45.5 -30t-56 -11q-29 0 -53.5 10.5t-41.5 28 t-26.5 41.5t-9.5 51z" />
<glyph unicode="k" d="M74 0l282 1413h174l-81 -409l-56 -213q28 52 67 94.5t86 73t100 47t110 16.5q64 0 113.5 -18.5t83.5 -52.5t51.5 -81t17.5 -104q0 -75 -34.5 -132t-89 -98.5t-123 -67.5t-136.5 -38l307 -430h-219l-340 518q131 9 219.5 30.5t142 53t76.5 71t23 83.5q0 24 -7.5 45 t-23 36.5t-39 25t-55.5 9.5q-64 0 -127.5 -44t-118 -114.5t-95 -158.5t-58.5 -176l-76 -379h-174z" />
<glyph unicode="l" d="M247 222v7q0 83 23 201l199 983h178l-196 -983q-19 -89 -23 -146q-1 -17 -1 -31q0 -36 8 -59q11 -33 37.5 -46t70.5 -13q74 0 164.5 21t201.5 67v-155q-96 -39 -191.5 -60.5t-195.5 -21.5q-94 0 -154 23t-90 75.5t-31 137.5z" />
<glyph unicode="m" d="M-12 0l108 543q4 19 8.5 50t11 83.5t15.5 132t21 195.5h149l-25 -232q28 51 58 96t62.5 79.5t69.5 54.5t79 20q51 0 85 -20q32 -20 48 -54q14 -30 14 -69v-11q-2 -46 -22 -96q28 51 57.5 96t62 79.5t69.5 54.5t79 20q100 0 134 -76q18 -39 18 -101q0 -57 -15 -134 l-141 -711h-160l141 702q11 55 15 89t2.5 53t-8 26t-17.5 7q-20 0 -46.5 -23t-55.5 -61t-58 -87.5t-54.5 -103t-44.5 -106t-27 -97.5l-80 -399h-160l141 702q11 55 15 89t2.5 53t-8 26t-17.5 7q-20 0 -46.5 -23t-55.5 -61t-58.5 -87.5t-54.5 -103t-44 -106t-28 -97.5 l-80 -399h-159z" />
<glyph unicode="n" d="M57 0l109 543q4 19 8.5 50t10.5 83.5t15 132t21 195.5h164l-25 -232q70 121 167.5 185.5t211.5 64.5q159 0 225 -96q42 -61 43 -159q0 -56 -14 -124l-129 -643h-174l129 641q12 57 12 99q1 48 -15 78q-28 54 -109 54q-64 0 -127.5 -44t-118.5 -114.5t-95.5 -158.5 t-58.5 -176l-76 -379h-174z" />
<glyph unicode="o" d="M80 352q0 83 17.5 164.5t51.5 156t84 138.5t115 111t143.5 73.5t170.5 26.5q90 0 160.5 -23.5t119 -70t74.5 -116t26 -161.5q0 -82 -17.5 -163.5t-51.5 -156t-84 -138.5t-114.5 -111t-143.5 -73.5t-170 -26.5q-180 0 -280.5 92.5t-100.5 277.5zM258 371q0 -121 57 -181.5 t166 -60.5q63 0 115.5 21.5t95 59t75 87t54 105.5t32.5 115.5t11 115.5q0 121 -57 181t-166 60q-62 0 -115 -21.5t-95.5 -59t-75 -87t-54 -105t-32.5 -115t-11 -115.5z" />
<glyph unicode="p" d="M-18 -410l190 953q4 19 8.5 50t11 83.5t15 132t20.5 195.5h164l-24 -232q69 121 167 185.5t214 64.5q72 0 125 -24.5t88 -68.5t52 -106.5t17 -138.5q0 -144 -37.5 -270.5t-110.5 -221t-180.5 -149.5t-246.5 -55q-73 0 -122.5 6t-92.5 18l-84 -422h-174zM272 172 q47 -20 97 -31.5t92 -11.5q82 0 143 28t104.5 73t71.5 103t44.5 118t23 116.5t6.5 100.5q0 96 -32.5 149t-106.5 53q-43 0 -86 -20t-84 -55t-78 -82.5t-67 -102t-52.5 -113.5t-34.5 -118z" />
<glyph unicode="q" d="M92 319q0 144 37.5 270.5t110.5 221.5t180.5 150t247.5 55q65 0 124 -8.5t113 -24.5l158 39l-287 -1432h-174l78 390l65 241q-30 -56 -70.5 -100.5t-87.5 -75t-101 -47t-111 -16.5q-72 0 -125.5 24t-88.5 68.5t-52 106.5t-17 138zM268 336q0 -95 33 -149t107 -54 q43 0 86 20t83.5 55t77.5 82t67 100.5t52 110.5t33 113l43 217q-47 20 -96.5 31.5t-91.5 11.5q-82 0 -143 -28t-105 -73t-72 -102.5t-44.5 -117.5t-23 -117t-6.5 -100z" />
<glyph unicode="r" d="M98 0l109 543q4 19 8.5 50t10.5 83.5t15 132t21 195.5h164l-25 -232q35 51 76 96.5t90 79.5t107 54t127 20q165 0 228 -103q37 -61 37 -155q0 -64 -17 -143h-177q15 69 15 117t-13.5 77.5t-40 43t-63.5 13.5q-72 0 -140 -43.5t-124.5 -114t-97 -158.5t-58.5 -177 l-76 -379h-176z" />
<glyph unicode="s" d="M100 16v170q90 -29 179 -43t176 -14q142 0 207 40t65 124q0 22 -10 40.5t-34 35t-66 33.5t-107 36q-60 18 -109.5 40.5t-85.5 54t-55.5 74t-19.5 98.5q0 67 27 124.5t83.5 100.5t142.5 67.5t203 24.5q28 0 61.5 -2t69.5 -6.5t72.5 -10.5t71.5 -14v-153q-91 21 -163 31 t-128 10q-69 0 -118.5 -11t-81.5 -31t-47 -48.5t-15 -63.5q0 -25 11.5 -44.5t36.5 -37t66.5 -34.5t102.5 -36q73 -24 124.5 -49.5t84.5 -57.5t48 -71t15 -90q0 -78 -34 -138t-95 -100.5t-146.5 -61.5t-187.5 -21q-96 0 -182.5 8t-161.5 26z" />
<glyph unicode="t" d="M133 858l29 146h280l56 276l184 45l-66 -321h451l-29 -146h-450l-94 -469q-12 -57 -12 -100q0 -9 1 -17q3 -48 24 -79.5t61 -45.5t102 -14q37 0 93 7.5t122 23.5v-150q-63 -15 -124.5 -21.5t-109.5 -6.5q-102 0 -174.5 22.5t-114.5 71.5q-42 48 -52 126q-3 24 -4 52 q0 60 16 137l92 463h-281z" />
<glyph unicode="u" d="M129 360l129 644h174l-129 -642q-12 -57 -12 -99q-1 -48 15 -77q28 -55 110 -55q43 0 85.5 20t83 55.5t77 83t67 102.5t52.5 114.5t34 118.5l76 379h174l-109 -543q-4 -19 -8.5 -50t-10.5 -83.5t-15 -132t-21 -195.5h-164l25 231q-69 -120 -166.5 -184.5t-212.5 -64.5 q-159 0 -225 96q-42 61 -43 159q0 55 14 123z" />
<glyph unicode="v" d="M164 1004h188l111 -664l24 -170q88 80 154.5 177t114 204.5t75.5 222t39 230.5h197q-16 -140 -62 -279t-116.5 -269t-164 -246t-204.5 -210h-168z" />
<glyph unicode="w" d="M72 0l67 1004h168l-59 -682l-15 -152l70 133l240 451h125l71 -445l19 -133q51 77 90 173t66 203t43 222t22 230h172q-9 -133 -36.5 -274.5t-74 -275.5t-110 -251.5t-144.5 -202.5h-147l-66 420l-8 102l-55 -108l-225 -414h-213z" />
<glyph unicode="x" d="M-33 0l490 504l-271 500h215l187 -386l336 386h223l-477 -504l293 -500h-224l-194 383l-344 -383h-234z" />
<glyph unicode="y" d="M-106 -252q27 -5 56 -7.5t58 -2.5q48 0 90.5 14t85 45.5t87 81.5t96.5 121l-203 1004h188l131 -664l25 -172q73 105 126.5 192.5t92 161.5t63 137.5t40 121t23.5 112t13 111.5h191q-12 -98 -32.5 -187.5t-58.5 -183t-97.5 -198.5t-149.5 -234q-88 -126 -161 -220.5 t-135.5 -163.5t-117 -113.5t-105.5 -71.5t-101 -37.5t-103 -10.5q-26 0 -49 1.5t-53 4.5v158z" />
<glyph unicode="z" d="M61 0l25 125l709 733h-547l28 146h762l-26 -136l-697 -721h584l-29 -147h-809z" />
<glyph unicode="{" d="M160 506l28 139h43q73 0 121.5 12t80 36.5t49 62.5t28.5 90l49 248q17 84 50 149.5t87 111t131.5 69.5t182.5 24h73l-27 -140h-60q-231 0 -275 -225l-49 -243q-25 -124 -90 -189.5t-174 -81.5q54 -5 89 -28.5t53.5 -60t21.5 -85t-9 -104.5l-65 -332q-12 -57 -8.5 -100 t24.5 -71.5t62 -43t106 -14.5h59l-28 -140h-74q-193 0 -267.5 95.5t-37.5 279.5l65 334q10 49 6.5 87.5t-25.5 65t-65 40.5t-112 14h-43z" />
<glyph unicode="|" d="M297 -410l410 2048h163l-409 -2048h-164z" />
<glyph unicode="}" d="M45 -410l29 140h59q230 0 277 225l69 356q25 124 90 190.5t174 82.5q-103 11 -141.5 80t-13.5 196l45 230q23 114 -23 166t-161 52h-60l27 140h73q193 0 269 -95.5t39 -279.5l-47 -231q-10 -49 -6.5 -86t26 -61.5t66 -37t112.5 -12.5h43l-28 -139h-43q-73 0 -122 -13.5 t-80.5 -40t-49 -66t-27.5 -91.5l-70 -350q-17 -84 -50.5 -150t-87.5 -111.5t-131.5 -69.5t-182.5 -24h-74z" />
<glyph unicode="~" d="M55 401q4 76 26 140.5t60.5 112t93 74t125.5 26.5q55 0 98.5 -18.5t80 -46.5t67.5 -61t60 -61t58.5 -46.5t63.5 -18.5q67 0 99 46t38 148h160q-2 -76 -23.5 -140.5t-60.5 -111.5t-95.5 -73.5t-129.5 -26.5q-55 0 -98.5 18.5t-79.5 46.5t-66.5 61t-59.5 61t-58.5 46.5 t-63.5 18.5q-59 0 -93 -47t-42 -148h-160z" />
<glyph unicode="&#xa0;" />
<glyph unicode="&#xa1;" d="M274 -410l234 1031h154l-177 -1031h-211zM508 887q0 28 11 53t29.5 43t43 28.5t51.5 10.5q28 0 52 -10.5t41 -27.5t26.5 -40.5t9.5 -48.5q0 -29 -11 -54t-30 -43.5t-43.5 -29t-52.5 -10.5t-51 10.5t-40 28t-26.5 41t-9.5 49.5z" />
<glyph unicode="&#xa2;" d="M143 535q0 130 41.5 244t118 199.5t186 135t246.5 49.5l109 332h155l-112 -340q38 -5 72.5 -14.5t68.5 -22.5l-33 -157q-37 18 -75 29.5t-80 19.5l-234 -691q35 0 67 3t63 9t62 16t66 24v-150q-72 -25 -151 -38t-154 -13l-141 -420h-154l144 432q-134 29 -199.5 120 t-65.5 233zM326 553q0 -85 32 -140t101 -77l225 678q-82 -4 -148.5 -44t-113 -104t-71.5 -145.5t-25 -167.5z" />
<glyph unicode="&#xa3;" d="M-10 0l28 147h160l86 431h-160l29 143h160l39 186q20 102 63 180t106 131t144 80t178 27q107 0 184.5 -37.5t127.5 -93.5l-107 -111q-21 22 -44 39.5t-49.5 29.5t-58 18t-71.5 6q-54 0 -102 -18t-87 -53.5t-67 -89t-43 -124.5l-35 -170h436l-28 -143h-437l-86 -431h568 l-29 -147h-905z" />
<glyph unicode="&#xa4;" d="M12 152l224 239q-16 31 -24.5 69t-8.5 83q0 52 10 106t29 106t47 98.5t63 84.5l-135 233l164 91l100 -230q44 22 92.5 33.5t102.5 11.5q103 0 170 -37l186 222l139 -91l-221 -239q16 -31 23.5 -70t7.5 -84q0 -52 -10 -106t-29 -105t-47 -98t-64 -84l136 -233l-162 -91 l-105 230q-43 -22 -90.5 -33.5t-101.5 -11.5q-102 0 -172 37l-182 -222zM385 571q0 -85 40.5 -128.5t115.5 -43.5q65 0 113.5 35t80.5 88t48 115t16 117q0 85 -40 127.5t-114 42.5q-65 0 -113.5 -34.5t-81 -86.5t-49 -114.5t-16.5 -117.5z" />
<glyph unicode="&#xa5;" d="M92 141l27 135h307l33 162h-309l26 135h309l7 29l-277 705h195l135 -367l63 -188l144 192l278 363h207l-565 -705l-6 -29h307l-27 -135h-307l-33 -162h307l-26 -135h-307l-29 -141h-180l28 141h-307z" />
<glyph unicode="&#xa6;" d="M297 -410l168 836h164l-168 -836h-164zM545 827l162 811h163l-161 -811h-164z" />
<glyph unicode="&#xa7;" d="M31 -199l32 160q34 -12 66 -21t65 -15t69.5 -8.5t78.5 -2.5q63 0 115 11.5t89.5 32.5t58 51t20.5 67q0 41 -34 77.5t-85 73t-110.5 76.5t-110.5 87.5t-85 105.5t-34 131q0 49 18 98.5t51 95t78.5 85t100.5 69.5q-19 20 -33 52.5t-14 82.5q0 54 24.5 110t78.5 101.5 t141 74.5t212 29q59 0 120 -6t114 -18l-29 -150q-60 17 -111.5 24t-107.5 7q-130 0 -198 -40.5t-68 -119.5q0 -32 19.5 -60.5t51.5 -56.5t73 -56t84 -58t84 -63t73 -72t51.5 -84t19.5 -99q0 -52 -18 -101t-50 -93.5t-76.5 -83.5t-98.5 -70q20 -20 33.5 -54.5t13.5 -78.5 q0 -76 -38.5 -136.5t-103 -102.5t-149.5 -64t-178 -22q-51 0 -92.5 2t-77.5 6t-68.5 10.5t-64.5 15.5zM342 655q0 -53 29.5 -97t75 -84t100.5 -77t106 -75q40 21 71.5 47t53.5 55.5t33.5 61t11.5 63.5q0 52 -30 94.5t-75.5 81t-100 74.5t-103.5 75q-38 -19 -70 -44.5 t-54.5 -54t-35 -59.5t-12.5 -61z" />
<glyph unicode="&#xa8;" d="M0 1004zM391 1286q0 26 9.5 48t25 37.5t37 24.5t45.5 9q48 0 78 -31.5t30 -75.5q0 -26 -9.5 -47.5t-26 -37.5t-37.5 -24.5t-45 -8.5t-43.5 8.5t-34 23t-22 34t-7.5 40.5zM821 1286q0 26 9.5 48t25 37.5t37 24.5t45.5 9t44 -8.5t34.5 -23t22.5 -34t8 -41.5 q0 -26 -9.5 -47.5t-26 -37.5t-38 -24.5t-45.5 -8.5t-43.5 8.5t-34 23t-22 34t-7.5 40.5z" />
<glyph unicode="&#xa9;" d="M32 530q0 99 20 196t57.5 185.5t92.5 163.5t126.5 130.5t159 86.5t190.5 31q113 0 200.5 -41.5t147.5 -115t91.5 -174.5t31.5 -220q0 -83 -17 -173.5t-51.5 -178t-87.5 -167t-125 -139t-164 -95t-204 -35.5q-113 0 -200 41t-146.5 114t-90.5 173t-31 218zM180 541 q0 -93 22.5 -171t65.5 -135t106.5 -88.5t145.5 -31.5q77 0 142.5 26.5t119 72t94.5 107.5t68.5 133.5t42 149t14.5 154.5q0 94 -22.5 174t-66 137.5t-107.5 90t-148 32.5q-80 0 -146 -27.5t-119 -74.5t-93 -110.5t-66.5 -136t-39.5 -150t-13 -152.5zM315 555 q0 79 23.5 156.5t70.5 138.5t117.5 99t165.5 38t164 -31l-27 -128q-31 17 -65 25t-72 8q-65 0 -108 -30.5t-68.5 -74.5t-36 -94.5t-10.5 -89.5q0 -66 32.5 -96.5t100.5 -30.5q38 0 73 8t73 23v-124q-90 -33 -185 -33q-124 0 -186 60.5t-62 175.5z" />
<glyph unicode="&#xaa;" d="M195 358l26 136h678l-29 -136h-675zM317 850q0 103 27.5 189.5t80 149t128 97.5t172.5 35q51 0 92 -6.5t70 -16.5l114 25l-75 -377q-4 -21 -8 -45.5t-8 -60t-9 -86t-12 -123.5h-129l4 123q-15 -23 -39 -48t-55.5 -45.5t-69.5 -33.5t-82 -13q-99 0 -150 61.5t-51 174.5z M483 862q0 -54 19.5 -84t56.5 -30q31 0 67 26t68 66.5t57 89.5t33 94l30 151q-22 6 -45.5 10t-48.5 4q-48 0 -83.5 -13.5t-62 -41t-44 -63t-28 -73t-15 -73t-4.5 -63.5z" />
<glyph unicode="&#xab;" d="M150 549l333 397l129 -74l-284 -333l149 -336l-143 -66zM569 549l351 393l122 -76l-299 -327l168 -328l-139 -68z" />
<glyph unicode="&#xac;" d="M109 469l30 152h854l-90 -447h-170l60 295h-684z" />
<glyph unicode="&#xad;" d="M254 463l33 164h598l-33 -164h-598z" />
<glyph unicode="&#xae;" d="M197 934q0 108 40 198t107 155t154 101.5t182 36.5q94 0 173 -35t136 -93.5t88.5 -134t31.5 -156.5q0 -108 -40 -198.5t-107 -156t-155 -102.5t-182 -37q-95 0 -173.5 35.5t-135 94t-88 135t-31.5 157.5zM311 938q0 -62 23 -120.5t65 -103.5t101 -72.5t131 -27.5 q71 0 137 28.5t116.5 79.5t80.5 123t30 159q0 60 -23.5 117.5t-66 102.5t-101.5 72t-130 27q-72 0 -137.5 -28t-115.5 -79t-80 -122t-30 -156zM436 709l105 520h147q79 0 126.5 -27t47.5 -90q0 -32 -11.5 -60.5t-31.5 -50t-46.5 -35t-55.5 -16.5q18 -5 30 -22t23 -51 l47 -168h-115l-40 168q-7 23 -21.5 35t-40.5 12h-20l-43 -215h-101zM596 1001h41q56 0 87.5 25.5t31.5 67.5q0 29 -21.5 41t-64.5 12h-45z" />
<glyph unicode="&#xaf;" d="M0 1004zM442 1225l27 133h524l-26 -133h-525z" />
<glyph unicode="&#xb0;" d="M326 1018q0 97 34.5 173t92 128t131.5 79t153 27q83 0 139 -23t90 -60.5t48.5 -85.5t14.5 -99q0 -95 -35 -170t-92.5 -127t-132 -79t-153.5 -27q-83 0 -138.5 23t-89.5 60.5t-48 85t-14 95.5zM489 1024q0 -18 4.5 -41.5t19.5 -44.5t44.5 -35t79.5 -14q45 0 86 16t73 49 t51 83t19 118q0 19 -4.5 42.5t-20 44t-45 34.5t-79.5 14q-45 0 -86 -15t-72.5 -47.5t-50.5 -83t-19 -120.5z" />
<glyph unicode="&#xb1;" d="M31 0l28 145h861l-29 -145h-860zM139 684l29 147h375l78 388h167l-77 -388h374l-28 -147h-375l-78 -389h-168l78 389h-375z" />
<glyph unicode="&#xb2;" d="M268 631l31 152l250 167q70 47 115.5 78.5t72 58t37 51.5t10.5 60q0 37 -26.5 59.5t-83.5 22.5q-51 0 -101 -18.5t-94 -50.5l-80 106q65 54 145.5 83.5t164.5 29.5q57 0 105 -14t83 -40.5t54.5 -65.5t19.5 -89q0 -58 -20.5 -105t-58.5 -88.5t-91.5 -80.5t-120.5 -80 l-131 -82h387l-31 -154h-637z" />
<glyph unicode="&#xb3;" d="M297 631l27 140q32 -8 87.5 -12t114.5 -4q61 0 103 11t68.5 29.5t38.5 42t12 49.5q0 37 -41.5 59.5t-141.5 22.5h-82l25 129h66q59 0 98.5 12t63.5 31t34 41t10 43q0 29 -25.5 47t-94.5 18q-54 0 -106.5 -9t-100.5 -23v141q24 7 55 12.5t64.5 9.5t67 6.5t63.5 2.5 q66 0 115.5 -12.5t82.5 -35t49.5 -53t16.5 -67.5q0 -72 -43.5 -131.5t-124.5 -91.5q62 -14 98.5 -47t36.5 -89t-24.5 -108t-76.5 -92t-134 -64t-197 -24q-29 0 -59.5 1t-58 3t-50 5t-37.5 7z" />
<glyph unicode="&#xb4;" d="M0 1004zM598 1171l254 242h252l-332 -242h-174z" />
<glyph unicode="&#xb5;" d="M-25 -410l283 1414h174l-127 -639q-14 -66 -12 -110.5t18.5 -71.5t41.5 -38.5t69 -11.5q40 0 81 20t79.5 55t72.5 82.5t63.5 102t51 114t33.5 118.5l76 379h174l-109 -543q-21 -105 -28.5 -169t-2.5 -98.5t22.5 -45.5t47.5 -11h18l-26 -139q-16 -3 -34 -5.5t-38 -2.5 q-197 0 -151 241q-72 -127 -162 -187t-193 -60q-56 0 -100 21.5t-66 59.5l-22 -178l-59 -297h-175z" />
<glyph unicode="&#xb6;" d="M109 -111l96 129q43 -46 106 -74t135 -28q57 0 108 18t92 53.5t70.5 88.5t43.5 123l215 1071h-168l-139 -699q-125 0 -213.5 24.5t-144.5 69t-82.5 107t-26.5 139.5q0 104 36.5 195.5t111.5 159.5t190.5 107.5t273.5 39.5h365l-246 -1229q-21 -105 -64.5 -183.5 t-108 -130t-147.5 -77.5t-182 -26t-179.5 32t-141.5 90z" />
<glyph unicode="&#xb7;" d="M403 539q0 37 14 68.5t38 55t55 37t65 13.5q36 0 65.5 -13t50.5 -35.5t32.5 -52t11.5 -61.5q0 -36 -14 -67.5t-37.5 -54.5t-55 -36.5t-65.5 -13.5q-35 0 -64 13t-50.5 35.5t-33.5 51t-12 60.5z" />
<glyph unicode="&#xb8;" d="M274 -295l125 295h172l-145 -295h-152z" />
<glyph unicode="&#xb9;" d="M289 631l29 145h237l92 461l-239 -108l-39 137l342 156h147l-129 -646h201l-29 -145h-612z" />
<glyph unicode="&#xba;" d="M195 358l26 136h676l-27 -136h-675zM299 872q0 85 27 166t80 144t131.5 101t181.5 38q63 0 116.5 -15.5t92 -47t60.5 -80t22 -113.5q0 -85 -27 -166t-80 -144t-131.5 -101t-181.5 -38q-62 0 -115.5 15.5t-92.5 47t-61 80t-22 113.5zM469 889q0 -33 11 -58.5t30.5 -43 t45.5 -26.5t56 -9q61 0 104.5 30t71 74.5t40 96.5t12.5 96q0 33 -11.5 58.5t-31 42.5t-45.5 26t-56 9q-60 0 -103 -29.5t-70.5 -74t-40.5 -96.5t-13 -96z" />
<glyph unicode="&#xbb;" d="M96 217l299 328l-168 327l140 68l202 -405l-350 -394zM526 211l285 334l-149 336l143 65l184 -411l-334 -398z" />
<glyph unicode="&#xbc;" d="M-86 0l1202 1413h174l-1204 -1413h-172zM180 1296l266 129h142l-117 -581h-160l84 418l-184 -91zM453 109l24 122l281 338h239l-67 -338h90l-25 -122h-90l-20 -109h-154l21 109h-299zM635 231h141l45 226z" />
<glyph unicode="&#xbd;" d="M-86 0l1202 1413h174l-1204 -1413h-172zM180 1296l266 129h142l-117 -581h-160l84 418l-184 -91zM537 0l24 125l215 154q53 37 78 65.5t25 63.5q0 53 -62 53q-32 0 -63 -14t-74 -46l-55 101q26 19 51 34.5t52 26t57 16t65 5.5q88 0 138 -42.5t50 -113.5q0 -40 -13.5 -73 t-40 -63t-66.5 -60t-93 -64l-67 -43h243l-24 -125h-440z" />
<glyph unicode="&#xbe;" d="M-86 0l1202 1413h174l-1204 -1413h-172zM152 842l24 119q49 -11 107 -11q72 0 103.5 24t31.5 58q0 23 -18 35t-70 12h-94l22 113h78q56 0 79 23.5t23 52.5q0 6 -3 13t-10.5 13.5t-21 10.5t-34.5 4q-25 0 -53 -4.5t-54 -12.5v113q35 11 75 16.5t85 5.5q50 0 85 -10.5 t57.5 -27.5t33 -39t10.5 -45q0 -32 -9 -58t-24 -45.5t-35 -33t-42 -21.5q27 -5 45 -16t29 -25t15.5 -30t4.5 -32q0 -31 -14 -68.5t-50 -70t-97 -54.5t-155 -22q-30 0 -65 3.5t-59 9.5zM453 109l24 122l281 338h239l-67 -338h90l-25 -122h-90l-20 -109h-154l21 109h-299z M635 231h141l45 226z" />
<glyph unicode="&#xbf;" d="M98 -18q0 83 27.5 153.5t81.5 123t134 83t185 33.5l56 246h151l-63 -383h-105q-87 0 -141 -24.5t-83.5 -61t-39.5 -79t-10 -77.5q0 -64 25.5 -111t71 -78t109 -46t138.5 -15h33l-31 -156h-25q-131 0 -227.5 32.5t-160 87t-95 125.5t-31.5 147zM578 887q0 28 11 53 t29.5 43t43 28.5t51.5 10.5q28 0 51.5 -10.5t41 -27.5t27 -40.5t9.5 -48.5q0 -29 -11 -54t-30 -43.5t-44 -29t-52 -10.5q-28 0 -51 10.5t-40 28t-26.5 41t-9.5 49.5z" />
<glyph unicode="&#xc0;" d="M-92 0l696 1307h244l166 -1307h-189l-32 285h-545l-150 -285h-190zM-18 1307zM330 444h442l-80 699zM379 1659h252l201 -213h-178z" />
<glyph unicode="&#xc1;" d="M-92 0l696 1307h244l166 -1307h-189l-32 285h-545l-150 -285h-190zM0 1307zM330 444h442l-80 699zM651 1446l221 213h252l-295 -213h-178z" />
<glyph unicode="&#xc2;" d="M-92 0l696 1307h244l166 -1307h-189l-32 285h-545l-150 -285h-190zM-18 1307zM330 444h442l-80 699zM416 1446l275 213h168l188 -213h-176l-115 102l-156 -102h-184z" />
<glyph unicode="&#xc3;" d="M-92 0l696 1307h244l166 -1307h-189l-32 285h-545l-150 -285h-190zM-10 1307zM330 444h442l-80 699zM398 1526q46 72 102 108.5t125 36.5q58 0 97.5 -17t69.5 -37t57 -37t61 -17q40 0 72 27.5t61 70.5l82 -82q-47 -72 -103 -108.5t-125 -36.5q-39 0 -68.5 8t-53.5 20 t-43.5 26t-38 26t-37.5 20t-41 8q-41 0 -73 -27.5t-63 -70.5z" />
<glyph unicode="&#xc4;" d="M-92 0l696 1307h244l166 -1307h-189l-32 285h-545l-150 -285h-190zM-23 1307zM330 444h442l-80 699zM423 1550q0 23 9 43t24 34.5t35 23t43 8.5q45 0 73.5 -30.5t28.5 -74.5q0 -23 -9 -42.5t-24 -34t-35 -23t-42 -8.5q-47 0 -75 30.5t-28 73.5zM862 1550q0 23 8.5 43 t23.5 34.5t35 23t43 8.5q22 0 41 -8.5t33 -22.5t21.5 -33t7.5 -41q0 -23 -9 -42.5t-24 -34t-35.5 -23t-42.5 -8.5q-46 0 -74 30.5t-28 73.5z" />
<glyph unicode="&#xc5;" d="M-92 0l696 1307h244l166 -1307h-189l-32 285h-545l-150 -285h-190zM-18 1307zM330 444h442l-80 699zM551 1538q0 45 17 82t46.5 63.5t67.5 41.5t80 15t77 -14.5t60.5 -38.5t39.5 -56.5t14 -69.5q0 -45 -17 -82t-46.5 -64t-67.5 -42t-80 -15t-77 14.5t-60.5 39t-39.5 57 t-14 69.5zM662 1544q0 -35 23 -59.5t63 -24.5q42 0 68 25.5t26 68.5q0 34 -23 59t-63 25q-42 0 -68 -26t-26 -68z" />
<glyph unicode="&#xc6;" d="M-145 0l794 1307h582l-29 -142h-321l-84 -417h307l-29 -142h-307l-92 -463h336l-29 -143h-502l56 281h-342l-164 -281h-176zM279 424h286l150 743z" />
<glyph unicode="&#xc7;" d="M96 442q0 96 19 198.5t58.5 200.5t99.5 185.5t141 153.5t184 104.5t229 38.5q91 0 171.5 -15.5t146.5 -47.5l-35 -175q-63 39 -133 59.5t-160 20.5q-94 0 -170 -32t-134.5 -85.5t-101 -124t-69.5 -148t-40 -157t-13 -151.5q0 -324 313 -324q84 0 170.5 19.5t163.5 54.5 l-33 -168q-85 -32 -163 -48t-163 -17l-137 -279h-152l125 295q-159 37 -238 147.5t-79 294.5z" />
<glyph unicode="&#xc8;" d="M-18 1307zM98 0l262 1307h744l-31 -150h-565l-82 -405h543l-29 -150h-543l-90 -450h565l-30 -152h-744zM379 1659h252l201 -213h-178z" />
<glyph unicode="&#xc9;" d="M0 1307zM98 0l262 1307h744l-31 -150h-565l-82 -405h543l-29 -150h-543l-90 -450h565l-30 -152h-744zM651 1446l221 213h252l-295 -213h-178z" />
<glyph unicode="&#xca;" d="M0 1307zM98 0l262 1307h744l-31 -150h-565l-82 -405h543l-29 -150h-543l-90 -450h565l-30 -152h-744zM434 1446l275 213h168l188 -213h-176l-115 102l-156 -102h-184z" />
<glyph unicode="&#xcb;" d="M0 1307zM98 0l262 1307h744l-31 -150h-565l-82 -405h543l-29 -150h-543l-90 -450h565l-30 -152h-744zM446 1550q0 23 9 43t24 34.5t35 23t43 8.5q45 0 73.5 -30.5t28.5 -74.5q0 -23 -9 -42.5t-24 -34t-35 -23t-42 -8.5q-47 0 -75 30.5t-28 73.5zM885 1550q0 23 8.5 43 t23.5 34.5t35 23t43 8.5q22 0 41 -8.5t33 -22.5t21.5 -33t7.5 -41q0 -23 -9 -42.5t-24 -34t-35.5 -23t-42.5 -8.5q-46 0 -74 30.5t-28 73.5z" />
<glyph unicode="&#xcc;" d="M-59 1307zM70 0l30 152h301l201 1005h-301l31 150h782l-31 -150h-301l-200 -1005h301l-31 -152h-782zM338 1659h252l201 -213h-178z" />
<glyph unicode="&#xcd;" d="M-18 1307zM70 0l30 152h301l201 1005h-301l31 150h782l-31 -150h-301l-200 -1005h301l-31 -152h-782zM633 1446l221 213h252l-295 -213h-178z" />
<glyph unicode="&#xce;" d="M-18 1307zM70 0l30 152h301l201 1005h-301l31 150h782l-31 -150h-301l-200 -1005h301l-31 -152h-782zM416 1446l275 213h168l188 -213h-176l-115 102l-156 -102h-184z" />
<glyph unicode="&#xcf;" d="M-12 1307zM70 0l30 152h301l201 1005h-301l31 150h782l-31 -150h-301l-200 -1005h301l-31 -152h-782zM434 1550q0 23 9 43t24 34.5t35 23t43 8.5q45 0 73.5 -30.5t28.5 -74.5q0 -23 -9 -42.5t-24 -34t-35 -23t-42 -8.5q-47 0 -75 30.5t-28 73.5zM873 1550q0 23 8.5 43 t23.5 34.5t35 23t43 8.5q22 0 41 -8.5t33 -22.5t21.5 -33t7.5 -41q0 -23 -9 -42.5t-24 -34t-35.5 -23t-42.5 -8.5q-46 0 -74 30.5t-28 73.5z" />
<glyph unicode="&#xd0;" d="M18 602l29 150h139l113 555h313q244 0 368 -107.5t124 -333.5q0 -40 -4.5 -99t-18.5 -127t-38.5 -142.5t-64.5 -145.5t-97.5 -135t-136 -112t-181.5 -76.5t-233 -28.5h-293l121 602h-140zM246 154h106q96 0 171.5 23t133.5 62.5t100 91.5t71 110t47 118t28 115.5 t13.5 103t3.5 80.5q0 81 -20.5 137.5t-61.5 92.5t-102.5 52.5t-143.5 16.5h-146l-81 -405h225l-29 -150h-225z" />
<glyph unicode="&#xd1;" d="M0 1307zM19 0l263 1307h221l207 -772l71 -299l140 700l75 371h166l-262 -1307h-223l-217 815l-60 262l-131 -659l-84 -418h-166zM408 1526q46 72 102 108.5t125 36.5q58 0 97.5 -17t69.5 -37t57 -37t61 -17q40 0 72 27.5t61 70.5l82 -82q-47 -72 -103 -108.5t-125 -36.5 q-39 0 -68.5 8t-53.5 20t-43.5 26t-38 26t-37.5 20t-41 8q-41 0 -73 -27.5t-63 -70.5z" />
<glyph unicode="&#xd2;" d="M-18 1307zM61 422q0 101 18 207.5t54.5 206.5t91.5 189t128.5 155.5t166.5 105.5t205 39q199 0 299 -115t100 -325q0 -101 -18 -207.5t-54.5 -207t-91 -189.5t-128.5 -155.5t-166.5 -105t-204.5 -38.5q-200 0 -300 114.5t-100 325.5zM244 434q0 -68 13.5 -122.5t42 -93.5 t73.5 -60t108 -21q81 0 147 36.5t117.5 97t88.5 138t61 159t35.5 161t11.5 143.5q0 68 -13.5 123t-42.5 93.5t-73.5 60t-107.5 21.5q-81 0 -147 -37t-117.5 -97.5t-88.5 -138t-61 -159t-35.5 -161t-11.5 -143.5zM379 1659h252l201 -213h-178z" />
<glyph unicode="&#xd3;" d="M0 1307zM61 422q0 101 18 207.5t54.5 206.5t91.5 189t128.5 155.5t166.5 105.5t205 39q199 0 299 -115t100 -325q0 -101 -18 -207.5t-54.5 -207t-91 -189.5t-128.5 -155.5t-166.5 -105t-204.5 -38.5q-200 0 -300 114.5t-100 325.5zM244 434q0 -68 13.5 -122.5t42 -93.5 t73.5 -60t108 -21q81 0 147 36.5t117.5 97t88.5 138t61 159t35.5 161t11.5 143.5q0 68 -13.5 123t-42.5 93.5t-73.5 60t-107.5 21.5q-81 0 -147 -37t-117.5 -97.5t-88.5 -138t-61 -159t-35.5 -161t-11.5 -143.5zM651 1446l221 213h252l-295 -213h-178z" />
<glyph unicode="&#xd4;" d="M-18 1307zM61 422q0 101 18 207.5t54.5 206.5t91.5 189t128.5 155.5t166.5 105.5t205 39q199 0 299 -115t100 -325q0 -101 -18 -207.5t-54.5 -207t-91 -189.5t-128.5 -155.5t-166.5 -105t-204.5 -38.5q-200 0 -300 114.5t-100 325.5zM244 434q0 -68 13.5 -122.5t42 -93.5 t73.5 -60t108 -21q81 0 147 36.5t117.5 97t88.5 138t61 159t35.5 161t11.5 143.5q0 68 -13.5 123t-42.5 93.5t-73.5 60t-107.5 21.5q-81 0 -147 -37t-117.5 -97.5t-88.5 -138t-61 -159t-35.5 -161t-11.5 -143.5zM416 1446l275 213h168l188 -213h-176l-115 102l-156 -102 h-184z" />
<glyph unicode="&#xd5;" d="M-18 1307zM61 422q0 101 18 207.5t54.5 206.5t91.5 189t128.5 155.5t166.5 105.5t205 39q199 0 299 -115t100 -325q0 -101 -18 -207.5t-54.5 -207t-91 -189.5t-128.5 -155.5t-166.5 -105t-204.5 -38.5q-200 0 -300 114.5t-100 325.5zM244 434q0 -68 13.5 -122.5t42 -93.5 t73.5 -60t108 -21q81 0 147 36.5t117.5 97t88.5 138t61 159t35.5 161t11.5 143.5q0 68 -13.5 123t-42.5 93.5t-73.5 60t-107.5 21.5q-81 0 -147 -37t-117.5 -97.5t-88.5 -138t-61 -159t-35.5 -161t-11.5 -143.5zM390 1526q46 72 102 108.5t125 36.5q58 0 97.5 -17t69.5 -37 t57 -37t61 -17q40 0 72 27.5t61 70.5l82 -82q-47 -72 -103 -108.5t-125 -36.5q-39 0 -68.5 8t-53.5 20t-43.5 26t-38 26t-37.5 20t-41 8q-41 0 -73 -27.5t-63 -70.5z" />
<glyph unicode="&#xd6;" d="M-10 1307zM61 422q0 101 18 207.5t54.5 206.5t91.5 189t128.5 155.5t166.5 105.5t205 39q199 0 299 -115t100 -325q0 -101 -18 -207.5t-54.5 -207t-91 -189.5t-128.5 -155.5t-166.5 -105t-204.5 -38.5q-200 0 -300 114.5t-100 325.5zM244 434q0 -68 13.5 -122.5t42 -93.5 t73.5 -60t108 -21q81 0 147 36.5t117.5 97t88.5 138t61 159t35.5 161t11.5 143.5q0 68 -13.5 123t-42.5 93.5t-73.5 60t-107.5 21.5q-81 0 -147 -37t-117.5 -97.5t-88.5 -138t-61 -159t-35.5 -161t-11.5 -143.5zM436 1550q0 23 9 43t24 34.5t35 23t43 8.5q45 0 73.5 -30.5 t28.5 -74.5q0 -23 -9 -42.5t-24 -34t-35 -23t-42 -8.5q-47 0 -75 30.5t-28 73.5zM875 1550q0 23 8.5 43t23.5 34.5t35 23t43 8.5q22 0 41 -8.5t33 -22.5t21.5 -33t7.5 -41q0 -23 -9 -42.5t-24 -34t-35.5 -23t-42.5 -8.5q-46 0 -74 30.5t-28 73.5z" />
<glyph unicode="&#xd7;" d="M96 248l361 301l-244 303l131 106l242 -301l360 301l96 -116l-360 -301l244 -303l-131 -107l-242 301l-360 -301z" />
<glyph unicode="&#xd8;" d="M61 422q0 101 17.5 207.5t53.5 206.5t90.5 189t128 155.5t166 105.5t204.5 39q34 0 64.5 -3t58.5 -11l104 211h154l-133 -267q77 -54 116 -147t39 -223q0 -101 -17.5 -207.5t-53.5 -207t-90.5 -189.5t-127.5 -155.5t-165.5 -105t-204.5 -38.5q-35 0 -66.5 4t-60.5 10 l-105 -211h-153l133 266q-152 112 -152 371zM244 434q0 -68 11.5 -122.5t39.5 -92.5l473 944q-30 6 -68 6q-81 0 -146.5 -36.5t-116 -97t-87 -138t-60.5 -159t-35 -161t-11 -143.5zM414 143q30 -6 71 -6q81 0 147 36.5t116.5 97t87 138t60.5 159t35 161t11 143.5 q0 69 -13 124t-42 94z" />
<glyph unicode="&#xd9;" d="M0 1307zM82.5 245q-10.5 82 9.5 183l176 879h178l-174 -865q-15 -77 -13 -135t26 -97t72 -59t124 -20q142 0 228.5 82t115.5 231l174 863h179l-172 -852q-22 -108 -67.5 -195.5t-114 -149t-158.5 -95t-201 -33.5q-122 0 -202.5 32t-125 90.5t-55 140.5zM397 1659h252 l201 -213h-178z" />
<glyph unicode="&#xda;" d="M0 1307zM82.5 245q-10.5 82 9.5 183l176 879h178l-174 -865q-15 -77 -13 -135t26 -97t72 -59t124 -20q142 0 228.5 82t115.5 231l174 863h179l-172 -852q-22 -108 -67.5 -195.5t-114 -149t-158.5 -95t-201 -33.5q-122 0 -202.5 32t-125 90.5t-55 140.5zM651 1446l221 213 h252l-295 -213h-178z" />
<glyph unicode="&#xdb;" d="M-18 1307zM82.5 245q-10.5 82 9.5 183l176 879h178l-174 -865q-15 -77 -13 -135t26 -97t72 -59t124 -20q142 0 228.5 82t115.5 231l174 863h179l-172 -852q-22 -108 -67.5 -195.5t-114 -149t-158.5 -95t-201 -33.5q-122 0 -202.5 32t-125 90.5t-55 140.5zM416 1446 l275 213h168l188 -213h-176l-115 102l-156 -102h-184z" />
<glyph unicode="&#xdc;" d="M-18 1307zM82.5 245q-10.5 82 9.5 183l176 879h178l-174 -865q-15 -77 -13 -135t26 -97t72 -59t124 -20q142 0 228.5 82t115.5 231l174 863h179l-172 -852q-22 -108 -67.5 -195.5t-114 -149t-158.5 -95t-201 -33.5q-122 0 -202.5 32t-125 90.5t-55 140.5zM428 1550 q0 23 9 43t24 34.5t35 23t43 8.5q45 0 73.5 -30.5t28.5 -74.5q0 -23 -9 -42.5t-24 -34t-35 -23t-42 -8.5q-47 0 -75 30.5t-28 73.5zM867 1550q0 23 8.5 43t23.5 34.5t35 23t43 8.5q22 0 41 -8.5t33 -22.5t21.5 -33t7.5 -41q0 -23 -9 -42.5t-24 -34t-35.5 -23t-42.5 -8.5 q-46 0 -74 30.5t-28 73.5z" />
<glyph unicode="&#xdd;" d="M-4 1307zM160 1307h207l163 -478l58 -192l123 174l362 496h213l-641 -840l-94 -467h-180l94 471zM647 1446l221 213h252l-295 -213h-178z" />
<glyph unicode="&#xde;" d="M55 0l260 1307h179l-39 -195h174q91 0 170 -19.5t137 -60t91.5 -103t33.5 -147.5q0 -49 -14 -106.5t-43.5 -116.5t-77 -114t-114.5 -97.5t-155.5 -68t-199.5 -25.5h-174l-50 -254h-178zM313 403h160q80 0 141 18t105.5 47t74 66.5t47.5 77t25.5 77.5t7.5 69 q0 100 -63.5 152.5t-198.5 52.5h-186z" />
<glyph unicode="&#xdf;" d="M-98 -410q52 104 87.5 206t55.5 204l203 1014q40 199 159 305t318 106q162 0 248 -64t86 -179q0 -71 -25.5 -120.5t-63.5 -86.5t-83 -64.5t-83 -54t-63.5 -55.5t-25.5 -68q0 -36 19.5 -68t48 -63.5t62.5 -63.5t62.5 -68.5t48 -78.5t19.5 -94q0 -45 -22 -98.5t-71 -100.5 t-127 -78.5t-190 -31.5q-51 0 -96 3t-82 9l31 154q31 -10 71 -15.5t78 -5.5q60 0 103 12.5t70 33.5t40 47.5t13 54.5q0 38 -19 70.5t-48 63t-62 62t-62 66.5t-48 76t-19 92q0 67 25.5 112t64 78.5t83.5 59.5t83.5 55t64 65t25.5 90q0 53 -44 83t-122 30q-119 0 -192 -67 t-102 -209l-201 -1008q-20 -103 -56 -204.5t-87 -205.5h-175z" />
<glyph unicode="&#xe0;" d="M0 1004zM92 319q0 144 37.5 270.5t110.5 221.5t180.5 150t247.5 55q65 0 124 -8.5t113 -24.5l158 39l-113 -561q-4 -19 -8.5 -50t-10.5 -83.5t-15 -132t-21 -195.5h-164l25 231q-69 -120 -167.5 -184.5t-213.5 -64.5q-72 0 -125.5 24t-88.5 68.5t-52 106.5t-17 138z M268 336q0 -95 33 -149t107 -54q43 0 86 20t84 55t77.5 82.5t67 102t52.5 114t34 118.5l41 206q-47 20 -96.5 31.5t-91.5 11.5q-82 0 -143 -28t-105 -73t-72 -102.5t-44.5 -117.5t-23 -117t-6.5 -100zM315 1413h252l230 -242h-174z" />
<glyph unicode="&#xe1;" d="M0 1004zM92 319q0 144 37.5 270.5t110.5 221.5t180.5 150t247.5 55q65 0 124 -8.5t113 -24.5l158 39l-113 -561q-4 -19 -8.5 -50t-10.5 -83.5t-15 -132t-21 -195.5h-164l25 231q-69 -120 -167.5 -184.5t-213.5 -64.5q-72 0 -125.5 24t-88.5 68.5t-52 106.5t-17 138z M268 336q0 -95 33 -149t107 -54q43 0 86 20t84 55t77.5 82.5t67 102t52.5 114t34 118.5l41 206q-47 20 -96.5 31.5t-91.5 11.5q-82 0 -143 -28t-105 -73t-72 -102.5t-44.5 -117.5t-23 -117t-6.5 -100zM598 1171l254 242h252l-332 -242h-174z" />
<glyph unicode="&#xe2;" d="M0 1004zM92 319q0 144 37.5 270.5t110.5 221.5t180.5 150t247.5 55q65 0 124 -8.5t113 -24.5l158 39l-113 -561q-4 -19 -8.5 -50t-10.5 -83.5t-15 -132t-21 -195.5h-164l25 231q-69 -120 -167.5 -184.5t-213.5 -64.5q-72 0 -125.5 24t-88.5 68.5t-52 106.5t-17 138z M268 336q0 -95 33 -149t107 -54q43 0 86 20t84 55t77.5 82.5t67 102t52.5 114t34 118.5l41 206q-47 20 -96.5 31.5t-91.5 11.5q-82 0 -143 -28t-105 -73t-72 -102.5t-44.5 -117.5t-23 -117t-6.5 -100zM379 1171l293 242h143l195 -242h-170l-117 121l-166 -121h-178z" />
<glyph unicode="&#xe3;" d="M0 1004zM92 319q0 144 37.5 270.5t110.5 221.5t180.5 150t247.5 55q65 0 124 -8.5t113 -24.5l158 39l-113 -561q-4 -19 -8.5 -50t-10.5 -83.5t-15 -132t-21 -195.5h-164l25 231q-69 -120 -167.5 -184.5t-213.5 -64.5q-72 0 -125.5 24t-88.5 68.5t-52 106.5t-17 138z M268 336q0 -95 33 -149t107 -54q43 0 86 20t84 55t77.5 82.5t67 102t52.5 114t34 118.5l41 206q-47 20 -96.5 31.5t-91.5 11.5q-82 0 -143 -28t-105 -73t-72 -102.5t-44.5 -117.5t-23 -117t-6.5 -100zM365 1268q89 145 227 145q58 0 97 -17t69 -37t56 -37t60 -17 q41 0 73 27.5t61 70.5l84 -86q-94 -146 -230 -146q-58 0 -96.5 17t-68.5 37.5t-56.5 37.5t-60.5 17q-41 0 -73 -27.5t-61 -70.5z" />
<glyph unicode="&#xe4;" d="M0 1004zM92 319q0 144 37.5 270.5t110.5 221.5t180.5 150t247.5 55q65 0 124 -8.5t113 -24.5l158 39l-113 -561q-4 -19 -8.5 -50t-10.5 -83.5t-15 -132t-21 -195.5h-164l25 231q-69 -120 -167.5 -184.5t-213.5 -64.5q-72 0 -125.5 24t-88.5 68.5t-52 106.5t-17 138z M268 336q0 -95 33 -149t107 -54q43 0 86 20t84 55t77.5 82.5t67 102t52.5 114t34 118.5l41 206q-47 20 -96.5 31.5t-91.5 11.5q-82 0 -143 -28t-105 -73t-72 -102.5t-44.5 -117.5t-23 -117t-6.5 -100zM391 1286q0 26 9.5 48t25 37.5t37 24.5t45.5 9q48 0 78 -31.5t30 -75.5 q0 -26 -9.5 -47.5t-26 -37.5t-37.5 -24.5t-45 -8.5t-43.5 8.5t-34 23t-22 34t-7.5 40.5zM821 1286q0 26 9.5 48t25 37.5t37 24.5t45.5 9t44 -8.5t34.5 -23t22.5 -34t8 -41.5q0 -26 -9.5 -47.5t-26 -37.5t-38 -24.5t-45.5 -8.5t-43.5 8.5t-34 23t-22 34t-7.5 40.5z" />
<glyph unicode="&#xe5;" d="M0 1004zM92 319q0 144 37.5 270.5t110.5 221.5t180.5 150t247.5 55q65 0 124 -8.5t113 -24.5l158 39l-113 -561q-4 -19 -8.5 -50t-10.5 -83.5t-15 -132t-21 -195.5h-164l25 231q-69 -120 -167.5 -184.5t-213.5 -64.5q-72 0 -125.5 24t-88.5 68.5t-52 106.5t-17 138z M268 336q0 -95 33 -149t107 -54q43 0 86 20t84 55t77.5 82.5t67 102t52.5 114t34 118.5l41 206q-47 20 -96.5 31.5t-91.5 11.5q-82 0 -143 -28t-105 -73t-72 -102.5t-44.5 -117.5t-23 -117t-6.5 -100zM504 1282q0 48 18.5 88.5t49.5 69.5t71.5 45t85.5 16t83 -15.5t64.5 -42 t41.5 -61.5t15 -75q0 -48 -18.5 -88.5t-48.5 -69.5t-70.5 -45t-84.5 -16q-45 0 -83 15.5t-65.5 41.5t-43 61.5t-15.5 75.5zM618 1288q0 -37 27.5 -65.5t71.5 -28.5q43 0 72.5 30t29.5 76q0 19 -7 36t-19.5 30t-30.5 21t-39 8t-40.5 -8t-33.5 -22.5t-22.5 -34t-8.5 -42.5z " />
<glyph unicode="&#xe6;" d="M-27 314q0 144 29.5 270.5t87.5 221.5t143.5 150t196.5 55q51 0 120 -16q61 -15 106 -83q39 48 96 78q63 32 131 32q69 0 116 -22t76 -58t41.5 -81.5t11.5 -92.5q0 -65 -25 -121.5t-75 -98.5t-124.5 -66.5t-172.5 -24.5h-102q-19 -88 -19 -156q0 -88 35.5 -133.5 t116.5 -45.5q57 0 108.5 12t96.5 29v-138q-51 -20 -118 -31.5t-130 -11.5q-97 0 -161.5 44.5t-86.5 129.5l-3 8q-44 -76 -101 -122q-78 -65 -170 -65q-57 0 -99.5 24t-70 68.5t-41 106.5t-13.5 138zM113 331q0 -95 26 -149t85 -54q34 0 68 20t66.5 55t61.5 83q10 16 20 34 q15 37 23 77l12 60l25 129l16 84q5 23 7.5 44t2.5 40q0 8 4 18q4 75 -32 86q-40 11 -73 11q-65 0 -113.5 -28t-83.5 -73t-57 -102.5t-35 -117.5t-18 -117t-5 -100zM653 586h99q44 0 83 12t68 34.5t45.5 55t16.5 74.5q0 25 -6 47t-19 38.5t-32 25.5t-44 9q-37 0 -69.5 -22.5 t-59.5 -62t-48 -94t-34 -117.5z" />
<glyph unicode="&#xe7;" d="M141 356q0 152 48 274.5t131 208.5t194 132.5t236 46.5q72 0 144.5 -11t137.5 -36l-31 -158q-55 26 -125 41.5t-135 15.5q-101 0 -178.5 -42t-130.5 -111.5t-80.5 -158t-27.5 -181.5q0 -122 66 -183t194 -61q66 0 138.5 14t137.5 41v-147q-81 -28 -148 -40.5t-132 -14.5 l-138 -281h-152l125 295q-135 30 -204.5 119t-69.5 237z" />
<glyph unicode="&#xe8;" d="M0 1004zM102 350q0 138 43 260t119 213.5t180.5 145t227.5 53.5q85 0 151.5 -20t112.5 -55t70 -82.5t24 -102.5q0 -72 -30.5 -130t-97 -99.5t-171.5 -64t-254 -22.5h-188q-5 -26 -7.5 -49t-2.5 -45q0 -109 65 -167t201 -58q88 0 174.5 13t154.5 30v-143 q-75 -20 -168.5 -32.5t-189.5 -12.5q-212 0 -313 94.5t-101 273.5zM315 580h160q111 0 183.5 13.5t115 36.5t59.5 53t17 62q0 28 -11 53t-34.5 44t-59 30t-83.5 11q-65 0 -118.5 -21.5t-96.5 -61t-76 -95.5t-56 -125zM315 1413h252l230 -242h-174z" />
<glyph unicode="&#xe9;" d="M0 1004zM102 350q0 138 43 260t119 213.5t180.5 145t227.5 53.5q85 0 151.5 -20t112.5 -55t70 -82.5t24 -102.5q0 -72 -30.5 -130t-97 -99.5t-171.5 -64t-254 -22.5h-188q-5 -26 -7.5 -49t-2.5 -45q0 -109 65 -167t201 -58q88 0 174.5 13t154.5 30v-143 q-75 -20 -168.5 -32.5t-189.5 -12.5q-212 0 -313 94.5t-101 273.5zM315 580h160q111 0 183.5 13.5t115 36.5t59.5 53t17 62q0 28 -11 53t-34.5 44t-59 30t-83.5 11q-65 0 -118.5 -21.5t-96.5 -61t-76 -95.5t-56 -125zM598 1171l254 242h252l-332 -242h-174z" />
<glyph unicode="&#xea;" d="M0 1004zM102 350q0 138 43 260t119 213.5t180.5 145t227.5 53.5q85 0 151.5 -20t112.5 -55t70 -82.5t24 -102.5q0 -72 -30.5 -130t-97 -99.5t-171.5 -64t-254 -22.5h-188q-5 -26 -7.5 -49t-2.5 -45q0 -109 65 -167t201 -58q88 0 174.5 13t154.5 30v-143 q-75 -20 -168.5 -32.5t-189.5 -12.5q-212 0 -313 94.5t-101 273.5zM315 580h160q111 0 183.5 13.5t115 36.5t59.5 53t17 62q0 28 -11 53t-34.5 44t-59 30t-83.5 11q-65 0 -118.5 -21.5t-96.5 -61t-76 -95.5t-56 -125zM379 1171l293 242h143l195 -242h-170l-117 121 l-166 -121h-178z" />
<glyph unicode="&#xeb;" d="M0 1004zM102 350q0 138 43 260t119 213.5t180.5 145t227.5 53.5q85 0 151.5 -20t112.5 -55t70 -82.5t24 -102.5q0 -72 -30.5 -130t-97 -99.5t-171.5 -64t-254 -22.5h-188q-5 -26 -7.5 -49t-2.5 -45q0 -109 65 -167t201 -58q88 0 174.5 13t154.5 30v-143 q-75 -20 -168.5 -32.5t-189.5 -12.5q-212 0 -313 94.5t-101 273.5zM315 580h160q111 0 183.5 13.5t115 36.5t59.5 53t17 62q0 28 -11 53t-34.5 44t-59 30t-83.5 11q-65 0 -118.5 -21.5t-96.5 -61t-76 -95.5t-56 -125zM391 1286q0 26 9.5 48t25 37.5t37 24.5t45.5 9 q48 0 78 -31.5t30 -75.5q0 -26 -9.5 -47.5t-26 -37.5t-37.5 -24.5t-45 -8.5t-43.5 8.5t-34 23t-22 34t-7.5 40.5zM821 1286q0 26 9.5 48t25 37.5t37 24.5t45.5 9t44 -8.5t34.5 -23t22.5 -34t8 -41.5q0 -26 -9.5 -47.5t-26 -37.5t-38 -24.5t-45.5 -8.5t-43.5 8.5t-34 23 t-22 34t-7.5 40.5z" />
<glyph unicode="&#xec;" d="M-59 1004zM168 786v154q69 38 145.5 60t163.5 22q71 0 119 -20t73.5 -63.5t28.5 -111.5t-16 -165l-68 -336q-11 -58 -11 -96t10.5 -61t29.5 -32.5t45 -9.5q68 0 134 26.5t134 63.5v-154q-69 -38 -145.5 -59.5t-163.5 -21.5q-71 0 -119 20t-73.5 63.5t-28.5 111.5t16 165 l68 336q12 57 11.5 95.5t-10.5 61.5t-29.5 32.5t-45.5 9.5q-68 0 -134 -26.5t-134 -64.5zM256 1413h252l230 -242h-174z" />
<glyph unicode="&#xed;" d="M-39 1004zM168 786v154q69 38 145.5 60t163.5 22q71 0 119 -20t73.5 -63.5t28.5 -111.5t-16 -165l-68 -336q-11 -58 -11 -96t10.5 -61t29.5 -32.5t45 -9.5q68 0 134 26.5t134 63.5v-154q-69 -38 -145.5 -59.5t-163.5 -21.5q-71 0 -119 20t-73.5 63.5t-28.5 111.5t16 165 l68 336q12 57 11.5 95.5t-10.5 61.5t-29.5 32.5t-45.5 9.5q-68 0 -134 -26.5t-134 -64.5zM559 1171l254 242h252l-332 -242h-174z" />
<glyph unicode="&#xee;" d="M-18 1004zM168 786v154q69 38 145.5 60t163.5 22q71 0 119 -20t73.5 -63.5t28.5 -111.5t-16 -165l-68 -336q-11 -58 -11 -96t10.5 -61t29.5 -32.5t45 -9.5q68 0 134 26.5t134 63.5v-154q-69 -38 -145.5 -59.5t-163.5 -21.5q-71 0 -119 20t-73.5 63.5t-28.5 111.5t16 165 l68 336q12 57 11.5 95.5t-10.5 61.5t-29.5 32.5t-45.5 9.5q-68 0 -134 -26.5t-134 -64.5zM361 1171l293 242h143l195 -242h-170l-117 121l-166 -121h-178z" />
<glyph unicode="&#xef;" d="M-18 1004zM168 786v154q69 38 145.5 60t163.5 22q71 0 119 -20t73.5 -63.5t28.5 -111.5t-16 -165l-68 -336q-11 -58 -11 -96t10.5 -61t29.5 -32.5t45 -9.5q68 0 134 26.5t134 63.5v-154q-69 -38 -145.5 -59.5t-163.5 -21.5q-71 0 -119 20t-73.5 63.5t-28.5 111.5t16 165 l68 336q12 57 11.5 95.5t-10.5 61.5t-29.5 32.5t-45.5 9.5q-68 0 -134 -26.5t-134 -64.5zM373 1286q0 26 9.5 48t25 37.5t37 24.5t45.5 9q48 0 78 -31.5t30 -75.5q0 -26 -9.5 -47.5t-26 -37.5t-37.5 -24.5t-45 -8.5t-43.5 8.5t-34 23t-22 34t-7.5 40.5zM803 1286 q0 26 9.5 48t25 37.5t37 24.5t45.5 9t44 -8.5t34.5 -23t22.5 -34t8 -41.5q0 -26 -9.5 -47.5t-26 -37.5t-38 -24.5t-45.5 -8.5t-43.5 8.5t-34 23t-22 34t-7.5 40.5z" />
<glyph unicode="&#xf0;" d="M82 356q0 78 17 157.5t50.5 152.5t82 136.5t112 110.5t140.5 74t167 27q3 0 12 -0.5t20 -1t21.5 -1t16.5 -1.5q-14 29 -31 63.5t-37 69.5l-284 -60v146l213 41l-82 143h200l60 -104l305 61v-145l-234 -47q42 -79 75 -152.5t56 -143t35.5 -137t12.5 -135.5 q0 -71 -14 -145.5t-43.5 -144.5t-75 -131.5t-107.5 -107.5t-141 -72.5t-176 -26.5q-89 0 -158 25.5t-116 73.5t-72 117.5t-25 157.5zM260 373q0 -60 15.5 -105.5t43.5 -76.5t68 -46.5t88 -15.5q64 0 116 22t92 58.5t68.5 85t47 102.5t27 109t8.5 106q0 59 -11.5 117 t-34.5 123q-40 9 -74 12.5t-63 3.5q-79 0 -138.5 -27t-103 -70.5t-72 -98.5t-46 -110t-24.5 -105t-7 -84z" />
<glyph unicode="&#xf1;" d="M0 1004zM57 0l109 543q4 19 8.5 50t10.5 83.5t15 132t21 195.5h164l-25 -232q70 121 167.5 185.5t211.5 64.5q159 0 225.5 -96t28.5 -283l-129 -643h-174l129 641q25 122 -3.5 176.5t-108.5 54.5q-64 0 -127.5 -44t-118.5 -114.5t-95.5 -158.5t-58.5 -176l-76 -379h-174z M365 1268q89 145 227 145q58 0 97 -17t69 -37t56 -37t60 -17q41 0 73 27.5t61 70.5l84 -86q-94 -146 -230 -146q-58 0 -96.5 17t-68.5 37.5t-56.5 37.5t-60.5 17q-41 0 -73 -27.5t-61 -70.5z" />
<glyph unicode="&#xf2;" d="M-18 1004zM80 352q0 83 17.5 164.5t51.5 156t84 138.5t115 111t143.5 73.5t170.5 26.5q90 0 160.5 -23.5t119 -70t74.5 -116t26 -161.5q0 -82 -17.5 -163.5t-51.5 -156t-84 -138.5t-114.5 -111t-143.5 -73.5t-170 -26.5q-180 0 -280.5 92.5t-100.5 277.5zM258 371 q0 -121 57 -181.5t166 -60.5q63 0 115.5 21.5t95 59t75 87t54 105.5t32.5 115.5t11 115.5q0 121 -57 181t-166 60q-62 0 -115 -21.5t-95.5 -59t-75 -87t-54 -105t-32.5 -115t-11 -115.5zM297 1413h252l230 -242h-174z" />
<glyph unicode="&#xf3;" d="M0 1004zM80 352q0 83 17.5 164.5t51.5 156t84 138.5t115 111t143.5 73.5t170.5 26.5q90 0 160.5 -23.5t119 -70t74.5 -116t26 -161.5q0 -82 -17.5 -163.5t-51.5 -156t-84 -138.5t-114.5 -111t-143.5 -73.5t-170 -26.5q-180 0 -280.5 92.5t-100.5 277.5zM258 371 q0 -121 57 -181.5t166 -60.5q63 0 115.5 21.5t95 59t75 87t54 105.5t32.5 115.5t11 115.5q0 121 -57 181t-166 60q-62 0 -115 -21.5t-95.5 -59t-75 -87t-54 -105t-32.5 -115t-11 -115.5zM598 1171l254 242h252l-332 -242h-174z" />
<glyph unicode="&#xf4;" d="M0 1004zM80 352q0 83 17.5 164.5t51.5 156t84 138.5t115 111t143.5 73.5t170.5 26.5q90 0 160.5 -23.5t119 -70t74.5 -116t26 -161.5q0 -82 -17.5 -163.5t-51.5 -156t-84 -138.5t-114.5 -111t-143.5 -73.5t-170 -26.5q-180 0 -280.5 92.5t-100.5 277.5zM258 371 q0 -121 57 -181.5t166 -60.5q63 0 115.5 21.5t95 59t75 87t54 105.5t32.5 115.5t11 115.5q0 121 -57 181t-166 60q-62 0 -115 -21.5t-95.5 -59t-75 -87t-54 -105t-32.5 -115t-11 -115.5zM379 1171l293 242h143l195 -242h-170l-117 121l-166 -121h-178z" />
<glyph unicode="&#xf5;" d="M0 1004zM80 352q0 83 17.5 164.5t51.5 156t84 138.5t115 111t143.5 73.5t170.5 26.5q90 0 160.5 -23.5t119 -70t74.5 -116t26 -161.5q0 -82 -17.5 -163.5t-51.5 -156t-84 -138.5t-114.5 -111t-143.5 -73.5t-170 -26.5q-180 0 -280.5 92.5t-100.5 277.5zM258 371 q0 -121 57 -181.5t166 -60.5q63 0 115.5 21.5t95 59t75 87t54 105.5t32.5 115.5t11 115.5q0 121 -57 181t-166 60q-62 0 -115 -21.5t-95.5 -59t-75 -87t-54 -105t-32.5 -115t-11 -115.5zM365 1268q89 145 227 145q58 0 97 -17t69 -37t56 -37t60 -17q41 0 73 27.5t61 70.5 l84 -86q-94 -146 -230 -146q-58 0 -96.5 17t-68.5 37.5t-56.5 37.5t-60.5 17q-41 0 -73 -27.5t-61 -70.5z" />
<glyph unicode="&#xf6;" d="M0 1004zM80 352q0 83 17.5 164.5t51.5 156t84 138.5t115 111t143.5 73.5t170.5 26.5q90 0 160.5 -23.5t119 -70t74.5 -116t26 -161.5q0 -82 -17.5 -163.5t-51.5 -156t-84 -138.5t-114.5 -111t-143.5 -73.5t-170 -26.5q-180 0 -280.5 92.5t-100.5 277.5zM258 371 q0 -121 57 -181.5t166 -60.5q63 0 115.5 21.5t95 59t75 87t54 105.5t32.5 115.5t11 115.5q0 121 -57 181t-166 60q-62 0 -115 -21.5t-95.5 -59t-75 -87t-54 -105t-32.5 -115t-11 -115.5zM391 1286q0 26 9.5 48t25 37.5t37 24.5t45.5 9q48 0 78 -31.5t30 -75.5 q0 -26 -9.5 -47.5t-26 -37.5t-37.5 -24.5t-45 -8.5t-43.5 8.5t-34 23t-22 34t-7.5 40.5zM821 1286q0 26 9.5 48t25 37.5t37 24.5t45.5 9t44 -8.5t34.5 -23t22.5 -34t8 -41.5q0 -26 -9.5 -47.5t-26 -37.5t-38 -24.5t-45.5 -8.5t-43.5 8.5t-34 23t-22 34t-7.5 40.5z" />
<glyph unicode="&#xf7;" d="M76 469l30 152h959l-31 -152h-958zM356 152q0 28 11 52.5t30 43t44 29t53 10.5q27 0 50 -10.5t40 -28t27 -40.5t10 -48q0 -29 -11 -54t-29 -43.5t-42.5 -29t-51.5 -10.5t-51 10.5t-42 28t-28 41t-10 49.5zM510 932q0 28 11 53t29.5 43t43.5 28.5t53 10.5q27 0 50 -10.5 t41 -27.5t27.5 -40.5t9.5 -48.5q0 -29 -10.5 -54t-29.5 -43.5t-43 -29t-51 -10.5q-28 0 -52 10.5t-41.5 28t-27.5 41t-10 49.5z" />
<glyph unicode="&#xf8;" d="M72 352q0 83 18 164.5t52 156t84 138.5t115 111t143.5 73.5t170.5 26.5q26 0 52 -2.5t49 -5.5l110 205h158l-135 -252q77 -44 119.5 -122.5t42.5 -193.5q0 -82 -18 -163.5t-52 -156t-84.5 -138.5t-115 -111t-143.5 -73.5t-171 -26.5q-28 0 -53 2.5t-49 5.5l-109 -205 h-158l133 250q-75 45 -117 124t-42 193zM250 371q0 -63 14.5 -110.5t46.5 -76.5l369 689q-11 2 -22 2h-23q-62 0 -115 -21.5t-96 -59.5t-75.5 -87.5t-54.5 -105t-33 -115t-11 -115.5zM440 131q11 -2 23 -2h24q62 0 115 21.5t96 59t75.5 87t54.5 105.5t33 115.5t11 115.5 q0 126 -63 186z" />
<glyph unicode="&#xf9;" d="M-39 1004zM129 360l129 644h174l-129 -642q-25 -121 3.5 -176t109.5 -55q43 0 85.5 20t83 55.5t77 83t67 102.5t52.5 114.5t34 118.5l76 379h174l-109 -543q-4 -19 -8.5 -50t-10.5 -83.5t-15 -132t-21 -195.5h-164l25 231q-69 -120 -166.5 -184.5t-212.5 -64.5 q-159 0 -225.5 96t-28.5 282zM276 1413h252l230 -242h-174z" />
<glyph unicode="&#xfa;" d="M-18 1004zM129 360l129 644h174l-129 -642q-25 -121 3.5 -176t109.5 -55q43 0 85.5 20t83 55.5t77 83t67 102.5t52.5 114.5t34 118.5l76 379h174l-109 -543q-4 -19 -8.5 -50t-10.5 -83.5t-15 -132t-21 -195.5h-164l25 231q-69 -120 -166.5 -184.5t-212.5 -64.5 q-159 0 -225.5 96t-28.5 282zM580 1171l254 242h252l-332 -242h-174z" />
<glyph unicode="&#xfb;" d="M-18 1004zM129 360l129 644h174l-129 -642q-25 -121 3.5 -176t109.5 -55q43 0 85.5 20t83 55.5t77 83t67 102.5t52.5 114.5t34 118.5l76 379h174l-109 -543q-4 -19 -8.5 -50t-10.5 -83.5t-15 -132t-21 -195.5h-164l25 231q-69 -120 -166.5 -184.5t-212.5 -64.5 q-159 0 -225.5 96t-28.5 282zM361 1171l293 242h143l195 -242h-170l-117 121l-166 -121h-178z" />
<glyph unicode="&#xfc;" d="M-18 1004zM129 360l129 644h174l-129 -642q-25 -121 3.5 -176t109.5 -55q43 0 85.5 20t83 55.5t77 83t67 102.5t52.5 114.5t34 118.5l76 379h174l-109 -543q-4 -19 -8.5 -50t-10.5 -83.5t-15 -132t-21 -195.5h-164l25 231q-69 -120 -166.5 -184.5t-212.5 -64.5 q-159 0 -225.5 96t-28.5 282zM373 1286q0 26 9.5 48t25 37.5t37 24.5t45.5 9q48 0 78 -31.5t30 -75.5q0 -26 -9.5 -47.5t-26 -37.5t-37.5 -24.5t-45 -8.5t-43.5 8.5t-34 23t-22 34t-7.5 40.5zM803 1286q0 26 9.5 48t25 37.5t37 24.5t45.5 9t44 -8.5t34.5 -23t22.5 -34 t8 -41.5q0 -26 -9.5 -47.5t-26 -37.5t-38 -24.5t-45.5 -8.5t-43.5 8.5t-34 23t-22 34t-7.5 40.5z" />
<glyph unicode="&#xfd;" d="M-106 -252q27 -5 56 -7.5t58 -2.5q48 0 90.5 14t85 45.5t87 81.5t96.5 121l-203 1004h188l131 -664l25 -172q73 105 126.5 192.5t92 161.5t63 137.5t40 121t23.5 112t13 111.5h191q-12 -98 -32.5 -187.5t-58.5 -183t-97.5 -198.5t-149.5 -234q-88 -126 -161 -220.5 t-135.5 -163.5t-117 -113.5t-105.5 -71.5t-101 -37.5t-103 -10.5q-26 0 -49 1.5t-53 4.5v158zM-39 1004zM559 1171l254 242h252l-332 -242h-174z" />
<glyph unicode="&#xfe;" d="M-25 -410l365 1823h174l-78 -389l-65 -242q31 56 71 100.5t87.5 75.5t101 47.5t110.5 16.5q72 0 125.5 -24.5t88.5 -68.5t52 -106.5t17 -138.5q0 -144 -37.5 -270.5t-110.5 -221t-180.5 -149.5t-246.5 -55q-73 0 -122.5 6t-93.5 18l-83 -422h-175zM266 172 q47 -20 97 -31.5t92 -11.5q82 0 143 28t104.5 73t71.5 103t44.5 118t23 116.5t6.5 100.5q0 96 -32.5 149t-106.5 53q-43 0 -86 -20t-84 -55t-77.5 -82t-67 -100.5t-52.5 -110.5t-33 -113z" />
<glyph unicode="&#xff;" d="M-106 -252q27 -5 56 -7.5t58 -2.5q48 0 90.5 14t85 45.5t87 81.5t96.5 121l-203 1004h188l131 -664l25 -172q73 105 126.5 192.5t92 161.5t63 137.5t40 121t23.5 112t13 111.5h191q-12 -98 -32.5 -187.5t-58.5 -183t-97.5 -198.5t-149.5 -234q-88 -126 -161 -220.5 t-135.5 -163.5t-117 -113.5t-105.5 -71.5t-101 -37.5t-103 -10.5q-26 0 -49 1.5t-53 4.5v158zM-39 1004zM352 1286q0 26 9.5 48t25 37.5t37 24.5t45.5 9q48 0 78 -31.5t30 -75.5q0 -26 -9.5 -47.5t-26 -37.5t-37.5 -24.5t-45 -8.5t-43.5 8.5t-34 23t-22 34t-7.5 40.5z M782 1286q0 26 9.5 48t25 37.5t37 24.5t45.5 9t44 -8.5t34.5 -23t22.5 -34t8 -41.5q0 -26 -9.5 -47.5t-26 -37.5t-38 -24.5t-45.5 -8.5t-43.5 8.5t-34 23t-22 34t-7.5 40.5z" />
<glyph unicode="&#x131;" d="M168 786v154q69 38 145.5 60t163.5 22q71 0 119 -20t73.5 -63.5t28.5 -111.5t-16 -165l-68 -336q-11 -58 -11 -96t10.5 -61t29.5 -32.5t45 -9.5q68 0 134 26.5t134 63.5v-154q-69 -38 -145.5 -59.5t-163.5 -21.5q-71 0 -119 20t-73.5 63.5t-28.5 111.5t16 165l68 336 q12 57 11.5 95.5t-10.5 61.5t-29.5 32.5t-45.5 9.5q-68 0 -134 -26.5t-134 -64.5z" />
<glyph unicode="&#x152;" d="M33 414q0 83 14.5 183t45.5 200.5t80.5 195t119.5 167.5t161.5 117t207.5 44q24 0 54.5 -2t60.5 -5t56 -5t41 -2h379l-30 -146h-330l-82 -411h309l-28 -146h-310l-92 -457h330l-29 -147h-364q-37 0 -66.5 -2t-54.5 -5t-47 -5t-43 -2q-194 0 -288.5 111t-94.5 317z M211 424q0 -291 229 -291q20 0 38 2.5t40 7.5l205 1022q-14 3 -34.5 6t-45.5 3q-82 0 -146 -41t-112 -107.5t-81 -149t-54 -166t-30 -159t-9 -127.5z" />
<glyph unicode="&#x153;" d="M10 268q0 37 4.5 89.5t15 112.5t27.5 124t41.5 125.5t57.5 116.5t75 96.5t94.5 65.5t116.5 24q47 0 83 -11t61 -30.5t38 -45.5t15 -56q12 24 36.5 49.5t57 46.5t72.5 34t84 13q61 0 107 -19.5t76.5 -53.5t45.5 -80.5t15 -100.5q0 -20 -4.5 -50t-18.5 -64.5t-40.5 -69 t-71 -62.5t-109.5 -45.5t-156 -17.5h-82q-8 -42 -12 -78.5t-4 -67.5q0 -93 35 -140.5t104 -47.5q57 0 105 11t92 28v-139q-50 -20 -116 -31.5t-128 -11.5q-91 0 -144.5 37.5t-78.5 115.5q-16 -35 -43 -63t-60 -48t-70.5 -31t-74.5 -11q-128 0 -187 70.5t-59 215.5zM172 270 q0 -77 23.5 -111t72.5 -34q42 0 76.5 35t62.5 90t48 123t34 135t20.5 125.5t6.5 93.5q0 81 -23 116.5t-65 35.5q-45 0 -81.5 -34.5t-65 -89t-49 -123t-34 -136t-20 -128t-6.5 -98.5zM678 588h80q47 0 86 11.5t66.5 34t43 54.5t15.5 74q0 57 -28 87t-67 30q-69 0 -118 -77 t-78 -214z" />
<glyph unicode="&#x178;" d="M-18 1307zM160 1307h207l163 -478l58 -192l123 174l362 496h213l-641 -840l-94 -467h-180l94 471zM428 1550q0 23 9 43t24 34.5t35 23t43 8.5q45 0 73.5 -30.5t28.5 -74.5q0 -23 -9 -42.5t-24 -34t-35 -23t-42 -8.5q-47 0 -75 30.5t-28 73.5zM867 1550q0 23 8.5 43 t23.5 34.5t35 23t43 8.5q22 0 41 -8.5t33 -22.5t21.5 -33t7.5 -41q0 -23 -9 -42.5t-24 -34t-35.5 -23t-42.5 -8.5q-46 0 -74 30.5t-28 73.5z" />
<glyph unicode="&#x237;" d="M-92 -279l112 113q44 -48 108.5 -78t139.5 -30q111 0 189 75t112 242l125 623q13 64 12.5 105.5t-13 64.5t-37.5 32t-60 9q-87 0 -171 -27t-175 -68v152q89 41 181.5 64.5t203.5 23.5q84 0 138.5 -21t82 -64.5t30.5 -110.5t-16 -160l-133 -664q-21 -108 -67.5 -187 t-110 -131.5t-140.5 -78t-161 -25.5q-59 0 -110.5 11t-95 30t-79.5 44.5t-65 55.5z" />
<glyph unicode="&#x2b0;" d="M336 718l167 829h122l-48 -240l-34 -131q26 31 53.5 57t58 45t64.5 29.5t74 10.5q99 0 138.5 -60t18.5 -163l-76 -377h-121l76 376q14 68 -2 97t-62 29q-39 0 -80.5 -23t-78.5 -62t-64.5 -89.5t-38.5 -104.5l-45 -223h-122z" />
<glyph unicode="&#x2b2;" d="M293 566l73 82q32 -32 70 -51.5t89 -19.5q66 0 109.5 38.5t61.5 126.5l73 359q13 64 -3 90t-57 26q-44 0 -95.5 -16t-106.5 -40v102q56 25 109.5 39.5t115.5 14.5q40 0 74.5 -11t58 -35t32.5 -62.5t-2 -93.5l-76 -379q-27 -136 -100 -200.5t-194 -64.5q-69 0 -130 26.5 t-102 68.5zM794 1469q0 36 25 60t61 24q35 0 57 -22.5t22 -54.5q0 -36 -25 -60t-61 -24q-35 0 -57 22.5t-22 54.5z" />
<glyph unicode="&#x2b3;" d="M336 718l64 319q3 14 6 32.5t6.5 48.5t8.5 75.5t12 113.5h109l-16 -148q23 33 50 62t58.5 50t69 33.5t82.5 12.5q84 0 133.5 -39t49.5 -118q0 -35 -9 -78h-126q8 34 8 65q0 35 -19 51.5t-63 16.5q-46 0 -88 -24.5t-76.5 -63.5t-58.5 -88.5t-34 -98.5l-44 -222h-123z" />
<glyph unicode="&#x2b7;" d="M282 718l45 589h122l-35 -400l-9 -89l238 342h97l57 -261l14 -78q40 46 70.5 102.5t52.5 119.5t35 130t18 134h133q-7 -78 -28 -160.5t-56.5 -161t-84.5 -148t-113 -119.5h-117l-47 238l-11 68l-43 -63l-170 -243h-168z" />
<glyph unicode="&#x2b8;" d="M204 475v111q20 -3 37 -4.5t38 -1.5q35 0 67 7.5t64 24t64 43.5t67 66l-161 586h127l104 -390l25 -106q67 72 112.5 138t76 127t47.5 118t27 113h129q-20 -122 -72.5 -237.5t-152.5 -235.5q-88 -105 -158.5 -175t-131.5 -112t-117.5 -59t-117.5 -17q-19 0 -35.5 1 t-38.5 3z" />
<glyph unicode="&#x2c6;" d="M0 1004zM379 1171l293 242h143l195 -242h-170l-117 121l-166 -121h-178z" />
<glyph unicode="&#x2dc;" d="M0 1004zM365 1268q89 145 227 145q58 0 97 -17t69 -37t56 -37t60 -17q41 0 73 27.5t61 70.5l84 -86q-94 -146 -230 -146q-58 0 -96.5 17t-68.5 37.5t-56.5 37.5t-60.5 17q-41 0 -73 -27.5t-61 -70.5z" />
<glyph unicode="&#x1d43;" d="M343 830q-6 36 0 76q14 90 92.5 137t220.5 47h143l6 34q10 57 -21 83.5t-107 26.5q-54 0 -109.5 -11.5t-116.5 -33.5l23 116q45 15 103.5 27t123.5 12q61 0 109.5 -13.5t79.5 -41t43 -69.5t1 -98l-79 -404h-120l15 83q-30 -27 -57.5 -45t-54.5 -29t-55 -15.5t-59 -4.5 q-57 0 -95 16t-59 43.5t-27 63.5zM475 886q-4 -35 17.5 -57.5t69.5 -22.5q52 0 97 22t99 66l21 104h-123q-90 0 -132.5 -29t-48.5 -83z" />
<glyph unicode="&#x1d47;" d="M339 764l163 820h130l-46 -238l-28 -114q59 60 110 86t113 26q55 0 96.5 -22t65.5 -64t29.5 -103t-10.5 -138q-33 -157 -129 -231.5t-242 -74.5q-58 0 -125.5 13t-126.5 40zM485 838q20 -11 47.5 -18.5t57.5 -7.5q39 0 76 9t69 33.5t56.5 67.5t37.5 110q20 97 -0.5 149.5 t-91.5 52.5q-43 0 -94 -28t-102 -85z" />
<glyph unicode="&#x1d48;" d="M334 888q-3 56 11 125q17 83 51.5 145t83 102.5t109.5 60.5t132 20q31 0 64.5 -4t60.5 -12l53 259h129l-124 -578l-38 -288h-122l17 132q-36 -44 -68 -72t-62.5 -44t-60 -21.5t-61.5 -5.5q-56 0 -93.5 22t-58 62.5t-23.5 96.5zM477.5 860.5q18.5 -47.5 81.5 -47.5 q29 0 65 19.5t69.5 53t60.5 79t38 98.5l32 149q-26 11 -59.5 16t-66.5 5q-32 0 -65 -10.5t-62.5 -35.5t-53 -66t-35.5 -101q-23 -112 -4.5 -159.5z" />
<glyph unicode="&#x1d49;" d="M374 1024q11 69 41 127.5t75.5 101t104.5 66t129 23.5q114 0 169 -46t55 -122q0 -44 -18 -79.5t-58 -60.5t-104.5 -39t-156.5 -14h-119q-3 -33 4 -63.5t26.5 -53.5t52 -37t80.5 -14q57 0 110 6t113 20v-100q-57 -14 -110 -23t-115 -9q-79 0 -137 22t-93.5 63t-48 99.5 t-0.5 132.5zM510 1074h101q72 0 114 8.5t64 22t28.5 30.5t6.5 35q0 35 -24.5 52t-81.5 17q-36 0 -69 -12t-60.5 -33.5t-47.5 -52t-31 -67.5z" />
<glyph unicode="&#x1d4d;" d="M320 505l38 96q50 -20 92.5 -28t84.5 -8q46 0 77 10.5t52 29.5t34 45t21 56q5 19 9 35.5t7.5 32t7.5 31.5t10 34q-26 -30 -52 -54.5t-54.5 -42t-60.5 -26.5t-70 -9q-93 0 -137 53.5t-44 147.5q0 84 24 162t72 138.5t119.5 96.5t165.5 36q39 0 75.5 -5.5t69.5 -14.5 l117 27l-134 -662q-10 -50 -32.5 -91t-59 -71t-89 -46.5t-122.5 -16.5q-68 0 -120.5 12.5t-100.5 31.5zM470 915q0 -52 22 -77t63 -25q36 0 74.5 22t72 57.5t58.5 81t35 93.5l31 145q-29 11 -60 16t-59 5q-49 0 -85.5 -16t-63 -42.5t-43.5 -60t-27 -69t-14 -69.5t-4 -61z " />
<glyph unicode="&#x1d4f;" d="M352 718l173 866h130l-50 -251l-32 -126q43 63 97 100t123 37q80 0 123.5 -43t43.5 -113q0 -46 -16 -82t-44.5 -63t-66.5 -43.5t-82 -23.5l185 -258h-160l-209 318q83 4 134.5 16t80 30t38.5 41.5t10 50.5q0 32 -17.5 46.5t-49.5 14.5q-37 0 -74 -22.5t-69 -61.5t-56 -91 t-36 -110l-46 -232h-130z" />
<glyph unicode="&#x1d50;" d="M272 718l84 405l29 210h107l-14 -116q24 35 45 59.5t42 39.5t42 21.5t44 6.5q52 0 73 -37t14 -96q44 64 83.5 98.5t92.5 34.5q61 0 92.5 -43.5t13.5 -134.5l-89 -448h-123l91 456q12 62 -31 62q-17 0 -37 -16t-40.5 -46t-38 -73t-27.5 -97l-57 -286h-123l91 457 q7 32 -1.5 46.5t-30.5 14.5q-15 0 -36.5 -14t-43 -43t-41 -72.5t-31.5 -102.5l-58 -286h-122z" />
<glyph unicode="&#x1d52;" d="M344 937q0 76 24 149t71 130.5t115 92.5t157 35q121 0 188 -60.5t67 -177.5q0 -75 -24.5 -147t-71 -128t-114.5 -90t-155 -34q-58 0 -105.5 14.5t-81 43t-52 71.5t-18.5 101zM477 954q0 -63 30.5 -100t99.5 -37q54 0 96 27t70 69t42.5 93.5t14.5 99.5q0 65 -33.5 96.5 t-96.5 31.5q-54 0 -96 -25t-70 -65.5t-42.5 -90.5t-14.5 -99z" />
<glyph unicode="&#x1d56;" d="M278 467l129 612l36 254h121l-15 -114q56 66 114 95.5t123 29.5q53 0 93 -21t64 -61.5t30 -99t-8 -134.5q-17 -91 -52.5 -152t-84 -97.5t-109.5 -52t-129 -15.5q-31 0 -64.5 3t-63.5 11l-52 -258h-132zM487 836q22 -11 46.5 -17.5t56.5 -6.5q47 0 86 12t69 38.5t51 68.5 t33 101q19 97 -4 149t-85 52q-24 0 -57 -12t-65 -41.5t-59.5 -78t-42.5 -121.5z" />
<glyph unicode="&#x1d57;" d="M370 1224l22 109h181l35 170l137 27l-40 -197h290l-22 -109h-290l-54 -267q-14 -66 10.5 -101.5t97.5 -35.5q31 0 68 4.5t79 14.5v-112q-41 -10 -78 -14t-79 -4q-64 0 -113.5 14.5t-80.5 45t-42 76.5t3 109l57 270h-181z" />
<glyph unicode="&#x1d58;" d="M370 844.5q-7 48.5 7 116.5l74 372h132l-75 -373q-15 -77 2.5 -109.5t69.5 -32.5q28 0 61.5 13t65.5 43.5t58.5 81t41.5 124.5l51 253h132l-76 -361l-36 -254h-121l15 114q-48 -59 -108 -92t-121 -33q-47 0 -84 14t-59.5 44.5t-29.5 79z" />
<glyph unicode="&#x1d5b;" d="M405 1333h133l68 -407l12 -89q103 96 162 225t72 271h134q-10 -86 -38 -171t-71.5 -164.5t-100.5 -150.5t-125 -129h-131z" />
<glyph unicode="&#x1d9c;" d="M375.5 886q-13.5 58 0.5 134q13 74 47.5 133.5t85.5 101.5t116 64.5t140 22.5q51 0 93.5 -7.5t91.5 -23.5l-24 -120q-36 21 -81.5 30.5t-90.5 9.5q-41 0 -80 -12.5t-71.5 -38t-56.5 -65t-34 -92.5q-11 -55 -3.5 -93.5t29 -62.5t57 -35t82.5 -11q89 0 182 35v-109 q-49 -17 -102 -27.5t-102 -10.5q-75 0 -133.5 20t-95.5 59.5t-50.5 97.5z" />
<glyph unicode="&#x1da0;" d="M252 467l17 107q17 -2 32 -3t29 -1q68 0 109 32.5t55 104.5l88 438h-198l21 109h198l20 92q26 123 99 184.5t207 61.5q36 0 77.5 -4t83.5 -11l-23 -112q-71 18 -140 18q-142 0 -171 -139l-19 -90h269l-21 -109h-269l-88 -438q-27 -128 -100 -187t-209 -59q-14 0 -32 1 t-35 5z" />
<glyph unicode="&#x1dbb;" d="M330 718l16 87l423 419h-332l22 109h497l-19 -94l-417 -411h355l-22 -110h-523z" />
<glyph unicode="&#x1fed;" d="M301 1286q0 22 8.5 41.5t23 34t34 23t40.5 8.5t40.5 -8.5t34 -23t23 -34t8.5 -41.5t-8.5 -41t-23 -33.5t-34 -23t-40.5 -8.5t-40.5 8.5t-34 23t-23 33.5t-8.5 41zM510 1488h194l138 -299h-126zM909 1286q0 22 8.5 41.5t23 34t33.5 23t41 8.5q21 0 40 -8.5t34 -23 t23.5 -34t8.5 -41.5t-8.5 -41t-23.5 -33.5t-34 -23t-40 -8.5q-22 0 -41 8.5t-33.5 23t-23 33.5t-8.5 41z" />
<glyph unicode="&#x1fee;" d="M301 1286q0 22 8.5 41.5t23 34t34 23t40.5 8.5t40.5 -8.5t34 -23t23 -34t8.5 -41.5t-8.5 -41t-23 -33.5t-34 -23t-40.5 -8.5t-40.5 8.5t-34 23t-23 33.5t-8.5 41zM578 1189l138 299h194l-206 -299h-126zM909 1286q0 22 8.5 41.5t23 34t33.5 23t41 8.5q21 0 40 -8.5 t34 -23t23.5 -34t8.5 -41.5t-8.5 -41t-23.5 -33.5t-34 -23t-40 -8.5q-22 0 -41 8.5t-33.5 23t-23 33.5t-8.5 41z" />
<glyph unicode="&#x1fef;" d="M563 1434h195l77 -269h-149z" />
<glyph unicode="&#x1ffd;" d="M573 1165l177 269h219l-227 -269h-169z" />
<glyph unicode="&#x2000;" horiz-adv-x="870" />
<glyph unicode="&#x2001;" horiz-adv-x="1740" />
<glyph unicode="&#x2002;" horiz-adv-x="870" />
<glyph unicode="&#x2003;" horiz-adv-x="1740" />
<glyph unicode="&#x2004;" horiz-adv-x="580" />
<glyph unicode="&#x2005;" horiz-adv-x="435" />
<glyph unicode="&#x2006;" horiz-adv-x="290" />
<glyph unicode="&#x2007;" horiz-adv-x="290" />
<glyph unicode="&#x2008;" horiz-adv-x="217" />
<glyph unicode="&#x2009;" horiz-adv-x="348" />
<glyph unicode="&#x200a;" horiz-adv-x="96" />
<glyph unicode="&#x2013;" d="M125 469l31 152h860l-31 -152h-860z" />
<glyph unicode="&#x2014;" d="M-12 469l30 152h1135l-31 -152h-1134z" />
<glyph unicode="&#x2018;" d="M496 936q0 50 14.5 105.5t44.5 110t75.5 104t108 87t142 60t176.5 22.5v-137q-51 2 -107 -9.5t-102.5 -37.5t-76.5 -66t-30 -94q0 -26 8.5 -44t18.5 -35.5t18.5 -37.5t8.5 -49q0 -38 -13.5 -66.5t-34.5 -47.5t-47.5 -29t-52.5 -10q-66 0 -108.5 43.5t-42.5 130.5z" />
<glyph unicode="&#x2019;" d="M299 762v137q51 -2 107 10t102 38t76 65.5t30 93.5q0 26 -8.5 44.5t-18 35.5t-18 37t-8.5 49q0 37 13.5 66t34.5 48t47.5 29t52.5 10q66 0 108.5 -43.5t42.5 -130.5q0 -50 -14.5 -105t-44.5 -109.5t-75.5 -104t-108 -87.5t-142 -60.5t-176.5 -22.5z" />
<glyph unicode="&#x201a;" d="M80 -205q51 -2 107 10t102 38t76 65.5t30 93.5q0 26 -8.5 44.5t-18 35.5t-18 37t-8.5 49q0 37 13.5 66t34.5 48.5t47 29.5t52 10q67 0 109.5 -44t42.5 -131q0 -50 -14.5 -105t-44.5 -109.5t-75.5 -104t-108 -87.5t-142 -60.5t-176.5 -22.5v137z" />
<glyph unicode="&#x201c;" d="M201 967q0 47 13.5 99t41 102.5t69.5 97t99 82t129.5 56.5t161.5 21v-129q-45 3 -94.5 -8t-91.5 -35.5t-69.5 -62t-27.5 -88.5q0 -24 7.5 -41t17 -33.5t17 -35t7.5 -46.5q0 -35 -12.5 -62t-32.5 -45t-44.5 -27t-49.5 -9q-62 0 -101.5 41t-39.5 123zM725 967q0 47 13.5 99 t41 102.5t69.5 97t99.5 82t129.5 56.5t161 21v-129q-45 3 -94.5 -8t-91.5 -35.5t-69.5 -62t-27.5 -88.5q0 -24 8 -41t17 -33.5t17 -35t8 -46.5q0 -35 -12.5 -62t-32.5 -45t-45 -27t-50 -9q-62 0 -101.5 41t-39.5 123z" />
<glyph unicode="&#x201d;" d="M125 803v129q45 -2 94.5 9t91.5 35t69.5 61.5t27.5 88.5q0 24 -8 41t-17 33.5t-17 35t-8 46.5q0 35 12.5 62t32.5 45t45 27t50 9q62 0 101.5 -41t39.5 -122q0 -47 -13.5 -99t-41 -103t-69.5 -97.5t-99.5 -82t-130 -56.5t-160.5 -21zM649 803v129q45 -2 94.5 9t91.5 35 t69.5 61.5t27.5 88.5q0 24 -7.5 41t-17 33.5t-17 35t-7.5 46.5q0 35 12.5 62t32.5 45t44.5 27t49.5 9q62 0 101.5 -41t39.5 -122q0 -47 -13.5 -99t-41 -103t-69.5 -97.5t-99 -82t-129.5 -56.5t-161.5 -21z" />
<glyph unicode="&#x201e;" d="M-98 -197q44 -2 93.5 9t91.5 35.5t69.5 62t27.5 88.5q0 24 -7.5 40.5t-17 33t-17 35.5t-7.5 47q0 35 12.5 62t32.5 45t45 27t49 9q62 0 102 -41t40 -123q0 -46 -13.5 -98.5t-41 -103.5t-69.5 -97.5t-99.5 -82t-130 -56.5t-160.5 -21v129zM426 -197q45 -2 94.5 9 t91.5 35.5t69.5 62t27.5 88.5q0 24 -8 40.5t-17 33t-17 35.5t-8 47q0 35 12.5 62t32.5 45t45 27t50 9q62 0 101.5 -41t39.5 -123q0 -46 -13.5 -98.5t-41 -103.5t-69.5 -97.5t-99.5 -82t-130 -56.5t-160.5 -21v129z" />
<glyph unicode="&#x2022;" d="M264 532q0 68 25 126t68 101t99 67t119 24t117.5 -24t95 -64.5t63.5 -94t23 -112.5q0 -67 -25.5 -124.5t-68 -100t-99.5 -66.5t-120 -24t-117.5 24t-94 64t-62.5 93t-23 111z" />
<glyph unicode="&#x2026;" d="M-23 96q0 27 9 50t25.5 40.5t38.5 27t48 9.5t47.5 -9t36.5 -25t23 -36.5t8 -43.5q0 -27 -9.5 -50t-26 -40.5t-39 -27t-48.5 -9.5t-47 9t-35.5 25t-22.5 36.5t-8 43.5zM362 96q0 27 9 50t25.5 40.5t38.5 27t48 9.5t47.5 -9t36.5 -25t23 -36.5t8 -43.5q0 -27 -9.5 -50 t-26 -40.5t-39 -27t-48.5 -9.5t-47 9t-35.5 25t-22.5 36.5t-8 43.5zM748 96q0 27 9 50t25 40.5t38 27t48 9.5t47.5 -9t37 -25t23.5 -36.5t8 -43.5q0 -27 -9.5 -50t-26.5 -40.5t-39.5 -27t-48.5 -9.5t-46.5 9t-35 25t-22.5 36.5t-8 43.5z" />
<glyph unicode="&#x202f;" horiz-adv-x="348" />
<glyph unicode="&#x2039;" d="M295 550l442 441l120 -103l-362 -348l223 -350l-147 -92z" />
<glyph unicode="&#x203a;" d="M283 201l362 348l-223 350l147 92l276 -452l-442 -441z" />
<glyph unicode="&#x2044;" d="M-86 0l1202 1413h174l-1204 -1413h-172z" />
<glyph unicode="&#x205f;" horiz-adv-x="435" />
<glyph unicode="&#x2070;" d="M293 905q0 53 9.5 112.5t31 117.5t56.5 111.5t85.5 94.5t117.5 65t153 24q62 0 114.5 -17t90.5 -52.5t59.5 -90t21.5 -129.5q0 -51 -9.5 -110t-30.5 -117.5t-55.5 -112.5t-84.5 -95.5t-117 -66t-153 -24.5q-65 0 -118 17.5t-91 53.5t-59 90.5t-21 128.5zM469 912 q0 -46 11 -76.5t30.5 -48t45 -25t54.5 -7.5q44 0 79.5 17.5t63 48t47 70t32 81.5t18.5 83.5t6 77.5q0 46 -11 76.5t-29.5 48.5t-44 25t-54.5 7q-44 0 -80 -18t-63.5 -48t-47.5 -69t-32.5 -81t-18.5 -84t-6 -78z" />
<glyph unicode="&#x2074;" d="M262 776l29 150l432 487h240l-99 -487h135l-28 -150h-135l-29 -145h-162l29 145h-412zM469 926h238l69 348z" />
<glyph unicode="&#x2075;" d="M315 633l29 145q48 -10 92 -16t92 -6q64 0 108.5 11.5t72 30.5t39.5 44.5t12 54.5q0 19 -7 33.5t-26.5 24t-54 14t-90.5 4.5h-183l88 440h515l-31 -153h-359l-30 -152h61q69 0 124.5 -9.5t94 -30.5t59.5 -55t21 -83q0 -71 -28.5 -129t-84 -99t-137.5 -64t-190 -23 q-37 0 -86.5 5t-100.5 13z" />
<glyph unicode="&#x2076;" d="M315 871q0 40 9 94t28.5 111t49.5 112t71 96q36 36 79 61t92 40t103 21.5t111 6.5h127l-29 -141h-129q-69 0 -117.5 -13t-81.5 -35.5t-53.5 -53t-33.5 -66.5l-2 -6q15 4 34.5 8t42 6.5t46.5 4t47 1.5q73 0 122 -16.5t78.5 -43.5t41.5 -63t12 -75q0 -51 -20 -105 t-64.5 -98.5t-115.5 -73t-173 -28.5q-133 0 -204 65.5t-71 190.5zM494 877q-2 -65 27.5 -93t90.5 -28q36 0 67 10t54.5 28t37 43.5t13.5 57.5q0 15 -5.5 30t-20 27.5t-39 20.5t-62.5 8q-20 0 -41.5 -2.5t-42.5 -6t-39 -8.5t-30 -9q-5 -22 -7.5 -41.5t-2.5 -36.5z" />
<glyph unicode="&#x2077;" d="M344 631l467 629h-407l30 153h609l-29 -143l-465 -639h-205z" />
<glyph unicode="&#x2078;" d="M311 801q0 47 19 83.5t48 65t65 49.5t71 38q-22 12 -41.5 28t-34.5 36.5t-23.5 45.5t-8.5 55q0 50 23.5 92t67 72t104.5 47t136 17q139 0 203 -49t64 -134q0 -38 -16 -69.5t-42 -58t-59.5 -48t-67.5 -37.5q51 -24 85 -67.5t34 -108.5q0 -64 -29 -110t-77.5 -75.5 t-111.5 -43.5t-130 -14q-75 0 -127.5 13t-86.5 37t-49.5 58.5t-15.5 77.5zM477 824q0 -20 6.5 -34.5t21.5 -25t39.5 -15.5t61.5 -5q31 0 61 5t53.5 16.5t37.5 30.5t14 48q0 42 -33.5 69t-93.5 50q-29 -11 -58.5 -24t-54 -29.5t-40 -37.5t-15.5 -48zM567 1217q0 -35 27 -61.5 t90 -51.5q29 11 57.5 24t51 28.5t36 33.5t13.5 39q0 37 -26.5 55.5t-94.5 18.5q-33 0 -61 -5t-49 -15.5t-32.5 -26.5t-11.5 -39z" />
<glyph unicode="&#x2079;" d="M313 631l29 143h139q71 0 120.5 10.5t84 31.5t57 52t37.5 72l2 6q-16 -5 -37 -8.5t-43.5 -6t-45.5 -4t-44 -1.5q-48 0 -93 8t-80 30.5t-56.5 62t-21.5 102.5q0 73 29.5 129t80.5 94t118 58t142 20q137 0 206 -66.5t69 -187.5q0 -41 -9 -95.5t-28.5 -112t-49 -112 t-71.5 -96.5q-66 -66 -160.5 -97.5t-224.5 -31.5h-150zM537 1149q0 -42 28.5 -64t98.5 -22q15 0 37 2t44 5.5t41.5 8.5t30.5 11q5 20 7.5 41.5t2.5 38.5q0 56 -25.5 87t-92.5 31q-45 0 -77.5 -12.5t-53.5 -33t-31 -45t-10 -48.5z" />
<glyph unicode="&#x207a;" d="M252 948l29 152h311l57 283h172l-57 -283h311l-28 -152h-312l-57 -284h-172l57 284h-311z" />
<glyph unicode="&#x207c;" d="M215 768l29 147h794l-28 -147h-795zM285 1115l28 147h795l-29 -147h-794z" />
<glyph unicode="&#x207d;" d="M432 899q0 113 37.5 226t112 215t186 187t260.5 142l62 -135q-121 -50 -211 -119t-150 -150t-89.5 -171t-29.5 -182q0 -134 63.5 -239.5t203.5 -172.5l-88 -125q-89 39 -156 96.5t-111.5 126.5t-67 146t-22.5 155z" />
<glyph unicode="&#x207e;" d="M236 510q120 50 210 119t150 150t89.5 171.5t29.5 182.5q0 134 -63 238.5t-203 172.5l88 125q89 -39 155.5 -96.5t111 -126.5t67 -146t22.5 -155q0 -113 -37.5 -226t-112 -215t-186 -187t-260.5 -142z" />
<glyph unicode="&#x207f;" d="M293 631l73 366q3 13 6 34t7 56t10 89t15 132h148l-17 -157q47 82 112.5 125.5t142.5 43.5q106 0 151 -64.5t19 -191.5l-87 -433h-159l87 432q14 66 -3.5 92t-63.5 26q-42 0 -77.5 -26t-66.5 -68.5t-53.5 -95t-32.5 -104.5l-52 -256h-159z" />
<glyph unicode="&#x2080;" d="M125 59q0 53 9.5 112.5t31 117.5t56.5 111.5t85.5 94.5t117.5 65t153 24q62 0 114.5 -17t90.5 -52.5t59.5 -90t21.5 -129.5q0 -51 -9.5 -110t-30.5 -117.5t-55.5 -112.5t-84.5 -95.5t-117 -66t-153 -24.5q-65 0 -118 17.5t-91 53.5t-59 90.5t-21 128.5zM301 66 q0 -46 11 -76.5t30.5 -48t45 -25t54.5 -7.5q44 0 79.5 17.5t63 48t47 70t32 81.5t18.5 83.5t6 77.5q0 46 -11 76.5t-29.5 48.5t-44 25t-54.5 7q-44 0 -80 -18t-63.5 -48t-47.5 -69t-32.5 -81t-18.5 -84t-6 -78z" />
<glyph unicode="&#x2081;" d="M121 -215l29 145h237l92 461l-239 -108l-39 137l342 156h147l-129 -646h201l-29 -145h-612z" />
<glyph unicode="&#x2082;" d="M100 -215l31 152l250 167q70 47 115.5 78.5t72 58t37 51.5t10.5 60q0 37 -26.5 59.5t-83.5 22.5q-51 0 -101 -18.5t-94 -50.5l-80 106q65 54 145.5 83.5t164.5 29.5q57 0 105 -14t83 -40.5t54.5 -65.5t19.5 -89q0 -58 -20.5 -105t-58.5 -88.5t-91.5 -80.5t-120.5 -80 l-131 -82h387l-31 -154h-637z" />
<glyph unicode="&#x2083;" d="M129 -215l27 140q32 -8 87.5 -12t114.5 -4q61 0 103 11t68.5 29.5t38.5 42t12 49.5q0 37 -41.5 59.5t-141.5 22.5h-82l25 129h66q59 0 98.5 12t63.5 31t34 41t10 43q0 29 -25.5 47t-94.5 18q-54 0 -106.5 -9t-100.5 -23v141q24 7 55 12.5t64.5 9.5t67 6.5t63.5 2.5 q66 0 115.5 -12.5t82.5 -35t49.5 -53t16.5 -67.5q0 -72 -43.5 -131.5t-124.5 -91.5q62 -14 98.5 -47t36.5 -89t-24.5 -108t-76.5 -92t-134 -64t-197 -24q-29 0 -59.5 1t-58 3t-50 5t-37.5 7z" />
<glyph unicode="&#x2084;" d="M94 -70l29 150l432 487h240l-99 -487h135l-28 -150h-135l-29 -145h-162l29 145h-412zM301 80h238l69 348z" />
<glyph unicode="&#x2085;" d="M147 -213l29 145q48 -10 92 -16t92 -6q64 0 108.5 11.5t72 30.5t39.5 44.5t12 54.5q0 19 -7 33.5t-26.5 24t-54 14t-90.5 4.5h-183l88 440h515l-31 -153h-359l-30 -152h61q69 0 124.5 -9.5t94 -30.5t59.5 -55t21 -83q0 -71 -28.5 -129t-84 -99t-137.5 -64t-190 -23 q-37 0 -86.5 5t-100.5 13z" />
<glyph unicode="&#x2086;" d="M147 25q0 40 9 94t28.5 111t49.5 112t71 96q36 36 79 61t92 40t103 21.5t111 6.5h127l-29 -141h-129q-69 0 -117.5 -13t-81.5 -35.5t-53.5 -53t-33.5 -66.5l-2 -6q15 4 34.5 8t42 6.5t46.5 4t47 1.5q73 0 122 -16.5t78.5 -43.5t41.5 -63t12 -75q0 -51 -20 -105 t-64.5 -98.5t-115.5 -73t-173 -28.5q-133 0 -204 65.5t-71 190.5zM326 31q-2 -65 27.5 -93t90.5 -28q36 0 67 10t54.5 28t37 43.5t13.5 57.5q0 15 -5.5 30t-20 27.5t-39 20.5t-62.5 8q-20 0 -41.5 -2.5t-42.5 -6t-39 -8.5t-30 -9q-5 -22 -7.5 -41.5t-2.5 -36.5z" />
<glyph unicode="&#x2087;" d="M176 -215l467 629h-407l30 153h609l-29 -143l-465 -639h-205z" />
<glyph unicode="&#x2088;" d="M143 -45q0 47 19 83.5t48 65t65 49.5t71 38q-22 12 -41.5 28t-34.5 36.5t-23.5 45.5t-8.5 55q0 50 23.5 92t67 72t104.5 47t136 17q139 0 203 -49t64 -134q0 -38 -16 -69.5t-42 -58t-59.5 -48t-67.5 -37.5q51 -24 85 -67.5t34 -108.5q0 -64 -29 -110t-77.5 -75.5 t-111.5 -43.5t-130 -14q-75 0 -127.5 13t-86.5 37t-49.5 58.5t-15.5 77.5zM309 -22q0 -20 6.5 -34.5t21.5 -25t39.5 -15.5t61.5 -5q31 0 61 5t53.5 16.5t37.5 30.5t14 48q0 42 -33.5 69t-93.5 50q-29 -11 -58.5 -24t-54 -29.5t-40 -37.5t-15.5 -48zM399 371q0 -35 27 -61.5 t90 -51.5q29 11 57.5 24t51 28.5t36 33.5t13.5 39q0 37 -26.5 55.5t-94.5 18.5q-33 0 -61 -5t-49 -15.5t-32.5 -26.5t-11.5 -39z" />
<glyph unicode="&#x2089;" d="M145 -215l29 143h139q71 0 120.5 10.5t84 31.5t57 52t37.5 72l2 6q-16 -5 -37 -8.5t-43.5 -6t-45.5 -4t-44 -1.5q-48 0 -93 8t-80 30.5t-56.5 62t-21.5 102.5q0 73 29.5 129t80.5 94t118 58t142 20q137 0 206 -66.5t69 -187.5q0 -41 -9 -95.5t-28.5 -112t-49 -112 t-71.5 -96.5q-66 -66 -160.5 -97.5t-224.5 -31.5h-150zM369 303q0 -42 28.5 -64t98.5 -22q15 0 37 2t44 5.5t41.5 8.5t30.5 11q5 20 7.5 41.5t2.5 38.5q0 56 -25.5 87t-92.5 31q-45 0 -77.5 -12.5t-53.5 -33t-31 -45t-10 -48.5z" />
<glyph unicode="&#x208a;" d="M84 102l29 152h311l57 283h172l-57 -283h311l-28 -152h-312l-57 -284h-172l57 284h-311z" />
<glyph unicode="&#x208c;" d="M47 -78l29 147h794l-28 -147h-795zM117 269l28 147h795l-29 -147h-794z" />
<glyph unicode="&#x208d;" d="M264 53q0 113 37.5 226t112 215t186 187t260.5 142l62 -135q-121 -50 -211 -119t-150 -150t-89.5 -171t-29.5 -182q0 -134 63.5 -239.5t203.5 -172.5l-88 -125q-89 39 -156 96.5t-111.5 126.5t-67 146t-22.5 155z" />
<glyph unicode="&#x208e;" d="M68 -336q120 50 210 119t150 150t89.5 171.5t29.5 182.5q0 134 -63 238.5t-203 172.5l88 125q89 -39 155.5 -96.5t111 -126.5t67 -146t22.5 -155q0 -113 -37.5 -226t-112 -215t-186 -187t-260.5 -142z" />
<glyph unicode="&#x20ac;" d="M33 422l28 136h144q3 42 12.5 89t22.5 89h-144l27 136h160q43 105 103 189t134 142.5t161.5 90t186.5 31.5q81 0 152.5 -16t130.5 -47l-33 -161q-56 35 -118.5 52t-143.5 17q-124 0 -219.5 -76t-161.5 -222h399l-26 -136h-420q-14 -43 -23.5 -89t-15.5 -89h424l-29 -136 h-403q0 -143 61.5 -214t198.5 -71q74 0 145 18t142 52v-160q-156 -65 -314 -65q-210 0 -314.5 110t-104.5 330h-162z" />
<glyph unicode="&#x2122;" d="M147 1202l23 105h405l-22 -105h-133l-84 -424h-135l84 424h-138zM496 778l182 529h151l23 -285v-86l33 76l145 295h166l-27 -529h-135l21 285l4 86l-33 -76l-141 -295h-129l-21 301l-4 70l-12 -57l-107 -314h-116z" />
<glyph unicode="&#x25fc;" horiz-adv-x="1004" d="M0 0v1005h1005v-1005h-1005z" />
<glyph unicode="&#xfb01;" d="M-20 -410q52 104 87.5 206t55.5 204l151 758h-178l29 145h178l27 131q40 199 167 295t351 96q26 0 58.5 -2t67 -6.5t68.5 -10.5t64 -13l-31 -150q-57 17 -122.5 27t-125.5 10q-134 0 -217 -66t-108 -190l-25 -121h563l-180 -903h-174l152 758h-389l-152 -758 q-20 -103 -55 -204.5t-86 -205.5h-176zM0 1004z" />
<glyph unicode="&#xfb02;" d="M-20 -410q52 104 87.5 206t55.5 204l151 758h-178l29 145h178l27 131q40 199 167 295t347 96q65 0 142 -6.5t153 -23.5l-279 -1395h-174l254 1276q-29 5 -58 6.5t-61 1.5q-136 0 -215 -68t-104 -192l-25 -121h213l-28 -145h-213l-152 -758q-20 -103 -55 -204.5 t-86 -205.5h-176zM0 1004z" />
<glyph d="M11 0l28 141h290l114 572h-323l29 145h323l33 166q40 199 160 300t329 101q53 0 106 -5.5t114 -17.5v-151q-65 14 -125 21.5t-110 7.5q-119 0 -194.5 -61t-100.5 -185l-35 -176h440l-29 -145h-440l-114 -572h331l-28 -141h-798z" />
<glyph d="M120 713l29 145h295l33 166q20 100 64.5 175t110 125t152 75.5t190.5 25.5q53 0 117.5 -7.5t123.5 -22.5v-150q-30 8 -63.5 14t-67.5 10.5t-66 6.5t-59 2q-59 0 -113 -16.5t-97 -49t-73.5 -80t-42.5 -108.5l-33 -166h469l-29 -145h-469l-76 -382q-21 -106 0.5 -153 t98.5 -47q42 0 80.5 6.5t73.5 17.5v-146q-39 -12 -89 -17.5t-102 -5.5q-62 0 -113.5 18.5t-86 59t-47 103.5t5.5 152l79 394h-295z" />
<glyph d="M207 858l29 146h514l-136 -678q-20 -99 12 -147t122 -48q81 0 153 23v-144q-40 -12 -88 -18t-100 -6q-72 0 -131 17.5t-97 59t-51.5 110t6.5 169.5l105 516h-338zM567 1276q0 31 12 58t32 47t47 31t57 11t55 -11t42.5 -29.5t27.5 -43t10 -51.5q0 -32 -12 -58.5t-32 -46.5 t-47 -31t-57 -11t-54.5 11t-42.5 29.5t-28 43t-10 51.5z" />
<glyph d="M0 1004zM207 858l29 146h514l-136 -678q-20 -99 12 -147t122 -48q81 0 153 23v-144q-40 -12 -88 -18t-100 -6q-72 0 -131 17.5t-97 59t-51.5 110t6.5 169.5l105 516h-338zM315 1413h252l230 -242h-174z" />
<glyph d="M0 1004zM207 858l29 146h514l-136 -678q-20 -99 12 -147t122 -48q81 0 153 23v-144q-40 -12 -88 -18t-100 -6q-72 0 -131 17.5t-97 59t-51.5 110t6.5 169.5l105 516h-338zM598 1171l254 242h252l-332 -242h-174z" />
<glyph d="M0 1004zM207 858l29 146h514l-136 -678q-20 -99 12 -147t122 -48q81 0 153 23v-144q-40 -12 -88 -18t-100 -6q-72 0 -131 17.5t-97 59t-51.5 110t6.5 169.5l105 516h-338zM379 1171l293 242h143l195 -242h-170l-117 121l-166 -121h-178z" />
<glyph d="M0 1004zM207 858l29 146h514l-136 -678q-20 -99 12 -147t122 -48q81 0 153 23v-144q-40 -12 -88 -18t-100 -6q-72 0 -131 17.5t-97 59t-51.5 110t6.5 169.5l105 516h-338zM391 1286q0 26 9.5 48t25 37.5t37 24.5t45.5 9q48 0 78 -31.5t30 -75.5q0 -26 -9.5 -47.5 t-26 -37.5t-37.5 -24.5t-45 -8.5t-43.5 8.5t-34 23t-22 34t-7.5 40.5zM821 1286q0 26 9.5 48t25 37.5t37 24.5t45.5 9t44 -8.5t34.5 -23t22.5 -34t8 -41.5q0 -26 -9.5 -47.5t-26 -37.5t-38 -24.5t-45.5 -8.5t-43.5 8.5t-34 23t-22 34t-7.5 40.5z" />
<glyph d="M88 0l29 145h322l143 713h-301l29 146h484l-171 -859h290l-29 -145h-796zM595 1282q0 31 11 57t30.5 45t45.5 30t56 11q29 0 53 -10.5t41.5 -28t27 -41.5t9.5 -51q0 -31 -11 -57t-30.5 -45t-45.5 -30t-56 -11q-29 0 -53.5 10.5t-41.5 28t-26.5 41.5t-9.5 51z" />
<glyph d="M0 1004zM88 0l29 145h322l143 714h-301l29 145h484l-171 -859h290l-29 -145h-796zM315 1413h252l230 -242h-174z" />
<glyph d="M0 1004zM88 0l29 145h322l143 714h-301l29 145h484l-171 -859h290l-29 -145h-796zM598 1171l254 242h252l-332 -242h-174z" />
<glyph d="M0 1004zM88 0l29 145h322l143 714h-301l29 145h484l-171 -859h290l-29 -145h-796zM379 1171l293 242h143l195 -242h-170l-117 121l-166 -121h-178z" />
<glyph d="M0 1004zM88 0l29 145h322l143 714h-301l29 145h484l-171 -859h290l-29 -145h-796zM391 1286q0 26 9.5 48t25 37.5t37 24.5t45.5 9q48 0 78 -31.5t30 -75.5q0 -26 -9.5 -47.5t-26 -37.5t-37.5 -24.5t-45 -8.5t-43.5 8.5t-34 23t-22 34t-7.5 40.5zM821 1286q0 26 9.5 48 t25 37.5t37 24.5t45.5 9t44 -8.5t34.5 -23t22.5 -34t8 -41.5q0 -26 -9.5 -47.5t-26 -37.5t-38 -24.5t-45.5 -8.5t-43.5 8.5t-34 23t-22 34t-7.5 40.5z" />
<glyph d="M-94 -283l114 115q44 -46 108.5 -74t139.5 -28q55 0 103 18.5t86.5 56.5t67 97.5t44.5 140.5l164 816h-483l29 145h659l-201 -1002q-21 -108 -67.5 -187t-110 -131.5t-140.5 -78t-161 -25.5q-59 0 -110.5 10.5t-95.5 29t-80.5 43.5t-65.5 54zM752 1276q0 31 11.5 58 t32 47t47 31t56.5 11t55 -11t42.5 -29.5t27.5 -43t10 -51.5q0 -32 -11.5 -58.5t-32 -46.5t-47 -31t-56.5 -11t-55 11t-42.5 29.5t-27.5 43t-10 51.5z" />
<glyph d="M70 0l29 145h330l225 1125h-297l28 143h473l-253 -1268h299l-29 -145h-805z" />
<glyph d="M-8 0l29 144h215l143 716h-215l28 144h373l-53 -232q40 67 85.5 114.5t96.5 77t107 43t118 13.5q51 0 96.5 -3t83.5 -11v-159q-88 19 -187 19q-71 0 -141.5 -32t-132 -94t-108.5 -152.5t-71 -208.5l-47 -235h299l-29 -144h-690z" />
<glyph d="M99 0l104 521q10 49 18.5 113.5t16 131t13.5 129.5t11 109h164l-25 -232q36 54 84.5 99.5t107.5 79t128 52.5t146 19q54 0 110.5 -6.5t104.5 -17.5v-170q-29 9 -63 15t-67 10.5t-63 6.5t-52 2q-78 0 -141.5 -22t-114 -59.5t-89.5 -86.5t-67.5 -102.5t-46.5 -108.5 t-28 -104l-75 -379h-176z" />
<glyph d="M27 315q0 69 21.5 137.5t63 128.5t102.5 106.5t140 70.5q-66 31 -101.5 86t-35.5 133q0 33 8 76t28.5 88.5t56.5 89t92 77.5t134.5 55t184.5 21q46 0 95 -2.5t91 -7.5l-30 -151q-48 5 -90 7.5t-87 2.5q-84 0 -141 -23t-92 -59t-50.5 -80.5t-15.5 -87.5q0 -44 15.5 -74.5 t44.5 -50t70.5 -28.5t93.5 -9h268l39 189l188 47l-123 -615q-21 -102 -66.5 -186t-117 -144t-168.5 -93t-221 -33q-193 0 -295 85.5t-102 243.5zM211 332q0 -42 13 -77.5t41.5 -61.5t72.5 -41t106 -15q82 0 145.5 22.5t110 65t76.5 103t45 135.5l43 211h-246q-82 0 -144 -17 t-107 -45t-75 -64t-48 -74t-25.5 -75t-7.5 -67z" />
<glyph d="M281 594l33 164h598l-33 -164h-598z" />
<glyph d="M333 -107l234 1031h154l-177 -1031h-211zM567 1190q0 28 11 53t29.5 43t43 28.5t51.5 10.5q28 0 52 -10.5t41 -27.5t26.5 -40.5t9.5 -48.5q0 -29 -11 -54t-30 -43.5t-43.5 -29t-52.5 -10.5t-51 10.5t-40 28t-26.5 41t-9.5 49.5z" />
<glyph d="M151 285q0 83 27.5 153.5t81.5 123t134 83t185 33.5l56 246h151l-63 -383h-105q-87 0 -141 -24.5t-83.5 -61t-39.5 -79t-10 -77.5q0 -64 25.5 -111t71 -78t109 -46t138.5 -15h33l-31 -156h-25q-131 0 -227.5 32.5t-160 87t-95 125.5t-31.5 147zM631 1190q0 28 11 53 t29.5 43t43 28.5t51.5 10.5q28 0 51.5 -10.5t41 -27.5t27 -40.5t9.5 -48.5q0 -29 -11 -54t-30 -43.5t-44 -29t-52 -10.5q-28 0 -51 10.5t-40 28t-26.5 41t-9.5 49.5z" />
<glyph d="M315 652l442 441l120 -103l-362 -348l223 -350l-147 -92z" />
<glyph d="M303 303l362 348l-223 350l147 92l276 -452l-442 -441z" />
<glyph d="M170 651l333 397l129 -74l-284 -333l149 -336l-143 -66zM589 651l351 393l122 -76l-299 -327l168 -328l-139 -68z" />
<glyph d="M116 319l299 328l-168 327l140 68l202 -405l-350 -394zM546 313l285 334l-149 336l143 65l184 -411l-334 -398z" />
<glyph d="M145 571l31 152h860l-31 -152h-860z" />
<glyph d="M8 571l30 152h1135l-31 -152h-1134z" />
<glyph d="M423 641q0 37 14 68.5t38 55t55 37t65 13.5q36 0 65.5 -13t50.5 -35.5t32.5 -52t11.5 -61.5q0 -36 -14 -67.5t-37.5 -54.5t-55 -36.5t-65.5 -13.5q-35 0 -64 13t-50.5 35.5t-33.5 51t-12 60.5z" />
<glyph d="M301 421q0 146 36.5 293.5t117 294t208.5 291.5t311 287l84 -107q-169 -141 -280.5 -280.5t-178 -273t-93.5 -258.5t-27 -238q0 -174 58 -333t184 -317l-119 -98q-149 165 -225 351t-76 388z" />
<glyph d="M113 -211q169 141 281 280.5t178.5 273t93.5 258.5t27 238q0 174 -58 332.5t-184 316.5l119 99q149 -165 225 -351t76 -389q0 -146 -36.5 -293t-117.5 -293.5t-209 -291.5t-311 -287z" />
<glyph d="M180 -308l372 1858h493l-28 -140h-327l-316 -1578h327l-28 -140h-493z" />
<glyph d="M123 -308l28 140h325l316 1578h-325l28 140h493l-372 -1858h-493z" />
<glyph d="M180 608l28 139h43q73 0 121.5 12t80 36.5t49 62.5t28.5 90l49 248q17 84 50 149.5t87 111t131.5 69.5t182.5 24h73l-27 -140h-60q-231 0 -275 -225l-49 -243q-25 -124 -90 -189.5t-174 -81.5q54 -5 89 -28.5t53.5 -60t21.5 -85t-9 -104.5l-65 -332q-12 -57 -8.5 -100 t24.5 -71.5t62 -43t106 -14.5h59l-28 -140h-74q-193 0 -267.5 95.5t-37.5 279.5l65 334q10 49 6.5 87.5t-25.5 65t-65 40.5t-112 14h-43z" />
<glyph d="M65 -308l29 140h59q230 0 277 225l69 356q25 124 90 190.5t174 82.5q-103 11 -141.5 80t-13.5 196l45 230q23 114 -23 166t-161 52h-60l27 140h73q193 0 269 -95.5t39 -279.5l-47 -231q-10 -49 -6.5 -86t26 -61.5t66 -37t112.5 -12.5h43l-28 -139h-43q-73 0 -122 -13.5 t-80.5 -40t-49 -66t-27.5 -91.5l-70 -350q-17 -84 -50.5 -150t-87.5 -111.5t-131.5 -69.5t-182.5 -24h-74z" />
<glyph d="M-2 186q0 71 15 159t44.5 178.5t74.5 176t104.5 152t134 107t164.5 40.5q38 0 73.5 -7t67.5 -25l161 37l-194 -615q-24 -78 -34.5 -127.5t-10.5 -78.5t8.5 -39.5t20.5 -10.5q32 0 70.5 38t76.5 101t74 146t64 175t44.5 188t16.5 184q0 78 -19.5 137t-53.5 98.5 t-85.5 60.5t-112.5 21q-60 0 -122 -18.5t-121.5 -53t-118 -84t-112.5 -110.5l-112 93q70 78 145 137.5t152.5 99t154.5 59.5t151 20q94 0 171.5 -28t133 -84t86.5 -140t31 -196q0 -95 -19 -205.5t-53.5 -221t-83.5 -213t-109 -181.5t-130.5 -126.5t-147.5 -47.5 q-80 0 -118 48.5t-21 139.5q-33 -54 -68 -90t-70.5 -57.5t-70.5 -31t-68 -9.5q-91 0 -137.5 53.5t-46.5 150.5zM176 209q0 -43 9.5 -59.5t29.5 -16.5q25 0 63 31t82.5 94.5t93 163.5t95.5 240l51 156q-10 12 -32.5 22.5t-49.5 10.5q-53 0 -99 -36t-84 -91.5t-67.5 -125.5 t-50 -141t-31 -136.5t-10.5 -111.5z" />
<glyph d="M37 43l33 158q57 -19 121 -31t145 -18l147 438q-52 21 -101.5 50t-87.5 66.5t-61.5 84t-23.5 104.5q0 70 29.5 134.5t90.5 115t155 82t223 37.5l77 231h154l-78 -235q51 -7 99 -17.5t98 -25.5l-31 -148q-56 19 -109 29.5t-106 15.5l-139 -418q55 -23 108 -51.5t94.5 -66 t67 -84.5t25.5 -107q0 -76 -29.5 -144.5t-93.5 -120.5t-163.5 -84t-240.5 -36l-82 -252h-155l82 254q-75 5 -137 16t-111 23zM395 915q0 -52 38 -91.5t104 -67.5l122 362q-73 -7 -123 -27.5t-81.5 -48.5t-45.5 -61.5t-14 -65.5zM492 152q137 8 211.5 67t74.5 156 q0 27 -11.5 49.5t-32 42.5t-49.5 37.5t-64 32.5z" />
<glyph d="M92 420q0 51 6.5 116.5t21 138.5t38.5 150t59.5 149t83 136t109.5 111.5t139 75.5t172 28q84 0 152.5 -26.5t117 -81t75 -137t26.5 -193.5q0 -51 -6.5 -117t-21 -139t-38.5 -149.5t-59.5 -148.5t-83 -136t-109.5 -111.5t-139.5 -75.5t-171.5 -28q-84 0 -152.5 26.5 t-117 81t-75 137t-26.5 193.5zM270 430q0 -63 11 -117.5t36 -95t66.5 -63.5t101.5 -23q75 0 136 36t108.5 96t82 137.5t57.5 160t34 165t11 151.5q0 64 -11 118.5t-37 94.5t-67 63t-101 23q-75 0 -136 -36t-108.5 -96t-82 -137.5t-57 -160t-33.5 -165t-11 -151.5zM468 655 q0 28 10.5 51.5t28.5 41.5t41.5 28t48.5 10q27 0 49 -10t38 -27t24.5 -39t8.5 -46q0 -27 -10.5 -50.5t-28 -41t-41 -27.5t-49.5 -10t-48 9.5t-38 26.5t-25 38.5t-9 45.5z" />
<glyph d="M91 420q0 51 6.5 116.5t21.5 138.5t39 150t59.5 149t83 136t109.5 111.5t139 75.5t172 28q84 0 152.5 -26.5t117 -81t75 -137t26.5 -193.5q0 -51 -6.5 -117t-21 -139t-38.5 -149.5t-59.5 -148.5t-83 -136t-109.5 -111.5t-139.5 -75.5t-171.5 -28q-84 0 -152.5 26.5 t-117 81t-75.5 137t-27 193.5zM270 430q0 -63 11 -117.5t36 -95t66.5 -63.5t101.5 -23q75 0 136 36t108.5 96t82 137.5t57 160t33.5 165t11 151.5q0 64 -11 118.5t-36.5 94.5t-66.5 63t-101 23q-75 0 -136 -36t-108.5 -96t-82 -137.5t-57 -160t-33.5 -165t-11 -151.5z" />
<glyph d="M82 395q0 75 14.5 161.5t45 172t78.5 164.5t115.5 139.5t155.5 96.5t199 36q86 0 156 -26.5t119.5 -78.5t76.5 -129.5t27 -178.5q0 -75 -14.5 -161.5t-45 -172t-78.5 -164.5t-115.5 -139.5t-156 -96.5t-198.5 -36q-86 0 -156 26.5t-119.5 78.5t-76.5 129.5t-27 178.5z M266 463l608 395q-9 35 -26 64t-42.5 50t-60.5 32.5t-81 11.5q-71 0 -126.5 -26.5t-98 -71t-73.5 -102t-51.5 -119t-32 -122.5t-16.5 -112zM274 291q19 -72 69 -116t144 -44q71 0 127 27t99 71.5t73.5 102t51 119.5t32 123t15.5 112z" />
<glyph d="M74 0l32 162h336l158 794l-346 -170l-37 152l453 215h164l-199 -991h293l-33 -162h-821z" />
<glyph d="M45 0l31 156l385 266q94 64 158.5 116.5t104.5 102t57.5 99t17.5 108.5q0 72 -44 119t-134 47q-82 0 -152.5 -35.5t-138.5 -91.5l-88 117q91 77 191 119t212 42q75 0 137.5 -20.5t108 -59.5t71 -95t25.5 -128q0 -77 -22 -143.5t-70.5 -130t-124.5 -127t-184 -133.5 l-230 -150l-34 -22h600l-31 -156h-846z" />
<glyph d="M18 -211l31 152q60 -5 116 -9t116 -4q99 0 171.5 16t124 42.5t84 60.5t50.5 69.5t25 70.5t7 63q0 47 -20 80.5t-57.5 55.5t-90.5 32t-118 10h-189l29 143h164q67 0 129 21t109.5 59t75.5 92t28 119q0 76 -51.5 114t-151.5 38q-72 0 -140.5 -12t-144.5 -35v149 q34 11 72.5 20t78.5 15.5t80.5 10t78.5 3.5q89 0 157 -19.5t114 -55t69.5 -85t23.5 -110.5q0 -68 -20 -127t-57 -107.5t-89 -86t-116 -62.5q44 -8 84 -27t70.5 -50t48.5 -74.5t18 -98.5q0 -46 -13 -100t-43.5 -107.5t-81 -104t-125.5 -89t-178 -61.5t-237 -23 q-56 0 -117 3.5t-115 8.5z" />
<glyph d="M-33 129l31 154l715 864h264l-172 -864h223l-31 -154h-223l-69 -344h-179l70 344h-629zM186 283h441l139 696z" />
<glyph d="M33 -215l30 156q42 -5 96.5 -9t108.5 -4q121 0 209.5 32t146.5 83t85.5 113.5t27.5 124.5q0 92 -76.5 135t-222.5 43h-248l138 688h704l-31 -152h-540l-78 -387h104q86 0 165 -16.5t139.5 -53.5t96.5 -95t36 -142q0 -107 -48 -202t-137.5 -166.5t-217.5 -113.5t-288 -42 q-23 0 -49.5 0.5t-53 2t-51.5 2.5t-46 3z" />
<glyph d="M117 377q0 45 6 112.5t22.5 146.5t46 165t76.5 169t113.5 157.5t158 131t209.5 90t267 33.5h141l-31 -151h-139q-133 0 -238 -39.5t-182.5 -105t-127.5 -149.5t-74 -173l-7 -19q70 36 147.5 58t158.5 22q91 0 157 -24t109 -66t63.5 -99t20.5 -124q0 -106 -40 -202 t-111.5 -169t-171 -116t-218.5 -43q-172 0 -264 99t-92 296zM297 358q0 -65 12.5 -109t38 -72t63 -40t87.5 -12q78 0 139.5 32t104.5 84.5t66 119t23 135.5q0 84 -48.5 136t-151.5 52q-40 0 -81 -7t-81 -19t-77 -28t-68 -34q-16 -65 -21.5 -127.5t-5.5 -110.5z" />
<glyph d="M102 -215l803 1200h-694l33 162h884l-32 -162l-785 -1200h-209z" />
<glyph d="M76 270q0 61 18 117t60 109.5t112 107t174 109.5q-94 54 -142 129t-48 166q0 74 30 146t90.5 128.5t151.5 91.5t213 35q89 0 157 -20.5t113.5 -57.5t69 -87t23.5 -109q0 -58 -17 -111.5t-56.5 -105t-105.5 -101.5t-163 -100q103 -59 161 -140t58 -186q0 -77 -33 -150.5 t-98.5 -131t-163 -92.5t-227.5 -35q-96 0 -167 23t-117.5 62t-69.5 91.5t-23 111.5zM264 291q0 -81 58 -120.5t161 -39.5q58 0 112.5 16.5t97 47.5t68 75t25.5 99q0 33 -10.5 66t-34 65t-62 63.5t-95.5 61.5q-94 -46 -155.5 -86t-98 -79t-51.5 -80t-15 -89zM434 1032 q0 -62 41.5 -118t136.5 -111q88 47 146.5 85t92.5 74t48 72t14 78q0 72 -48.5 113t-147.5 41q-62 0 -114 -16t-89.5 -46t-58.5 -73.5t-21 -98.5z" />
<glyph d="M-14 -215l30 149h140q134 0 240 36.5t184.5 98.5t130 143.5t75.5 170.5l7 18q-69 -35 -146.5 -57t-161.5 -22q-99 0 -166 26.5t-108 70.5t-58.5 100.5t-17.5 115.5q0 101 38 196.5t108.5 169.5t170.5 119t224 45q169 0 262.5 -96.5t93.5 -298.5q0 -49 -6.5 -117.5 t-24 -147t-48 -162.5t-77.5 -164t-113.5 -151.5t-156.5 -125.5t-205 -85.5t-260 -31.5h-155zM317 651q0 -33 9 -66.5t31.5 -60.5t61.5 -44t99 -17q40 0 82 7t82 19t76.5 28t66.5 34q7 30 12 61.5t8.5 62.5t5 59t1.5 52q0 66 -13.5 111.5t-39 73t-63 39.5t-85.5 12 q-81 0 -143.5 -34.5t-105 -88t-64 -119.5t-21.5 -129z" />
<glyph d="M168 274q0 53 9.5 112.5t31 117.5t56.5 111.5t85.5 94.5t117.5 65t153 24q62 0 114.5 -17t90.5 -52.5t59.5 -90t21.5 -129.5q0 -51 -9.5 -110t-30.5 -117.5t-55.5 -112.5t-84.5 -95.5t-117 -66t-153 -24.5q-65 0 -118 17.5t-91 53.5t-59 90.5t-21 128.5zM344 281 q0 -46 11 -76.5t30.5 -48t45 -25t54.5 -7.5q44 0 79.5 17.5t63 48t47 70t32 81.5t18.5 83.5t6 77.5q0 46 -11 76.5t-29.5 48.5t-44 25t-54.5 7q-44 0 -80 -18t-63.5 -48t-47.5 -69t-32.5 -81t-18.5 -84t-6 -78z" />
<glyph d="M164 0l29 145h237l92 461l-239 -108l-39 137l342 156h147l-129 -646h201l-29 -145h-612z" />
<glyph d="M143 0l31 152l250 167q70 47 115.5 78.5t72 58t37 51.5t10.5 60q0 37 -26.5 59.5t-83.5 22.5q-51 0 -101 -18.5t-94 -50.5l-80 106q65 54 145.5 83.5t164.5 29.5q57 0 105 -14t83 -40.5t54.5 -65.5t19.5 -89q0 -58 -20.5 -105t-58.5 -88.5t-91.5 -80.5t-120.5 -80 l-131 -82h387l-31 -154h-637z" />
<glyph d="M172 0l27 140q32 -8 87.5 -12t114.5 -4q61 0 103 11t68.5 29.5t38.5 42t12 49.5q0 37 -41.5 59.5t-141.5 22.5h-82l25 129h66q59 0 98.5 12t63.5 31t34 41t10 43q0 29 -25.5 47t-94.5 18q-54 0 -106.5 -9t-100.5 -23v141q24 7 55 12.5t64.5 9.5t67 6.5t63.5 2.5 q66 0 115.5 -12.5t82.5 -35t49.5 -53t16.5 -67.5q0 -72 -43.5 -131.5t-124.5 -91.5q62 -14 98.5 -47t36.5 -89t-24.5 -108t-76.5 -92t-134 -64t-197 -24q-29 0 -59.5 1t-58 3t-50 5t-37.5 7z" />
<glyph d="M137 145l29 150l432 487h240l-99 -487h135l-28 -150h-135l-29 -145h-162l29 145h-412zM344 295h238l69 348z" />
<glyph d="M190 2l29 145q48 -10 92 -16t92 -6q64 0 108.5 11.5t72 30.5t39.5 44.5t12 54.5q0 19 -7 33.5t-26.5 24t-54 14t-90.5 4.5h-183l88 440h515l-31 -153h-359l-30 -152h61q69 0 124.5 -9.5t94 -30.5t59.5 -55t21 -83q0 -71 -28.5 -129t-84 -99t-137.5 -64t-190 -23 q-37 0 -86.5 5t-100.5 13z" />
<glyph d="M190 240q0 40 9 94t28.5 111t49.5 112t71 96q36 36 79 61t92 40t103 21.5t111 6.5h127l-29 -141h-129q-69 0 -117.5 -13t-81.5 -35.5t-53.5 -53t-33.5 -66.5l-2 -6q15 4 34.5 8t42 6.5t46.5 4t47 1.5q73 0 122 -16.5t78.5 -43.5t41.5 -63t12 -75q0 -51 -20 -105 t-64.5 -98.5t-115.5 -73t-173 -28.5q-133 0 -204 65.5t-71 190.5zM369 246q-2 -65 27.5 -93t90.5 -28q36 0 67 10t54.5 28t37 43.5t13.5 57.5q0 15 -5.5 30t-20 27.5t-39 20.5t-62.5 8q-20 0 -41.5 -2.5t-42.5 -6t-39 -8.5t-30 -9q-5 -22 -7.5 -41.5t-2.5 -36.5z" />
<glyph d="M219 0l467 629h-407l30 153h609l-29 -143l-465 -639h-205z" />
<glyph d="M186 170q0 47 19 83.5t48 65t65 49.5t71 38q-22 12 -41.5 28t-34.5 36.5t-23.5 45.5t-8.5 55q0 50 23.5 92t67 72t104.5 47t136 17q139 0 203 -49t64 -134q0 -38 -16 -69.5t-42 -58t-59.5 -48t-67.5 -37.5q51 -24 85 -67.5t34 -108.5q0 -64 -29 -110t-77.5 -75.5 t-111.5 -43.5t-130 -14q-75 0 -127.5 13t-86.5 37t-49.5 58.5t-15.5 77.5zM352 193q0 -20 6.5 -34.5t21.5 -25t39.5 -15.5t61.5 -5q31 0 61 5t53.5 16.5t37.5 30.5t14 48q0 42 -33.5 69t-93.5 50q-29 -11 -58.5 -24t-54 -29.5t-40 -37.5t-15.5 -48zM442 586q0 -35 27 -61.5 t90 -51.5q29 11 57.5 24t51 28.5t36 33.5t13.5 39q0 37 -26.5 55.5t-94.5 18.5q-33 0 -61 -5t-49 -15.5t-32.5 -26.5t-11.5 -39z" />
<glyph d="M188 0l29 143h139q71 0 120.5 10.5t84 31.5t57 52t37.5 72l2 6q-16 -5 -37 -8.5t-43.5 -6t-45.5 -4t-44 -1.5q-48 0 -93 8t-80 30.5t-56.5 62t-21.5 102.5q0 73 29.5 129t80.5 94t118 58t142 20q137 0 206 -66.5t69 -187.5q0 -41 -9 -95.5t-28.5 -112t-49 -112 t-71.5 -96.5q-66 -66 -160.5 -97.5t-224.5 -31.5h-150zM412 518q0 -42 28.5 -64t98.5 -22q15 0 37 2t44 5.5t41.5 8.5t30.5 11q5 20 7.5 41.5t2.5 38.5q0 56 -25.5 87t-92.5 31q-45 0 -77.5 -12.5t-53.5 -33t-31 -45t-10 -48.5z" />
<glyph d="M92 319q0 144 37.5 270.5t110.5 221.5t180.5 150t247.5 55q65 0 124 -8.5t113 -24.5l158 39l-113 -561q-4 -19 -8.5 -50t-10.5 -83.5t-15 -132t-21 -195.5h-164l25 231q-69 -120 -167.5 -184.5t-213.5 -64.5q-72 0 -125.5 24t-88.5 68.5t-52 106.5t-17 138zM268 336 q0 -95 33 -149t107 -54q43 0 86 20t84 55t77.5 82.5t67 102t52.5 114t34 118.5l41 206q-47 20 -96.5 31.5t-91.5 11.5q-82 0 -143 -28t-105 -73t-72 -102.5t-44.5 -117.5t-23 -117t-6.5 -100z" />
<glyph d="M-34 -170.5q0 8.5 3.5 33t17.5 53t37 55.5t55 52t72 50q-35 23 -52 59t-17 75q0 40 13.5 76t35.5 68t50 59.5t56 49.5q-20 29 -32.5 64t-12.5 84q0 14 2 39.5t9.5 66t43 103t92.5 107.5t131.5 68.5t162.5 23.5q37 0 71 -5t60 -13h383l-28 -142h-181q20 -26 31.5 -63 t11.5 -81q0 -39 -9.5 -86.5t-44.5 -107t-93.5 -104t-135 -67.5t-166.5 -23q-63 0 -108.5 11t-91.5 37q-31 -24 -54 -52.5t-23 -63.5q0 -78 116 -84l262 -14q140 -8 214.5 -66.5t74.5 -171.5q0 -38 -8.5 -78t-43 -90.5t-99.5 -89.5t-160 -60.5t-219 -21.5q-112 0 -193 17 t-133 47.5t-76 73.5t-24 95v16.5zM152 -162q0 -62 64.5 -90.5t189.5 -28.5q83 0 143 12t99.5 33t60.5 51.5t24.5 47.5t4 28t0.5 16q0 96 -158 103l-281 13q-75 -44 -110.5 -87.5t-36.5 -97.5zM366 625q0 -78 46.5 -124t131.5 -46q52 0 96.5 15.5t78.5 43.5t56 67.5t27 76 t5 57.5q0 78 -43.5 124t-133.5 46q-54 0 -98.5 -17t-78 -46t-58 -73.5t-29.5 -123.5z" />
<glyph d="M368 1045l357 667h158l89 -667h-114l-18 146h-274l-77 -146h-121zM618 1288h210l-38 341z" />
<glyph d="M438 1045l134 667h233q58 0 99.5 -12.5t66.5 -35.5t33 -55.5t1 -73.5q-11 -58 -46.5 -89t-97.5 -47q61 -14 91 -56t16 -113q-19 -97 -93 -141t-195 -44h-242zM574 1138h96q40 0 72 5t54 16.5t36 31.5t21 51q20 101 -134 101h-104zM633 1436h91q32 0 60 5.5t49.5 17.5 t35.5 31.5t20 47.5q4 21 0 36t-18.5 25t-41 15t-65.5 5h-94z" />
<glyph d="M451 1299q0 90 29 167.5t81.5 134t125.5 88.5t162 32q51 0 96.5 -9t80.5 -24l-22 -103q-42 20 -79 29t-87 9q-68 0 -118.5 -27.5t-84 -72.5t-50 -101.5t-16.5 -114.5q0 -172 161 -172q63 0 108.5 12.5t87.5 30.5l-19 -106q-90 -35 -191 -35q-64 0 -113.5 19t-83 53.5 t-51 82.5t-17.5 107z" />
<glyph d="M408 1045l134 667h193q173 0 244 -85t41 -252q-13 -74 -42.5 -135t-78.5 -104t-121.5 -67t-173.5 -24h-196zM544 1139h70q62 0 109 14t81.5 43t57 74.5t34.5 109.5q13 71 7 117t-30 73t-63.5 38t-94.5 11h-75z" />
<glyph d="M467 1045l132 667h416l-19 -93h-310l-35 -182h297l-19 -93h-297l-40 -205h308l-19 -94h-414z" />
<glyph d="M469 1045l129 667h416l-16 -82h-310l-41 -212h294l-15 -80h-294l-57 -293h-106z" />
<glyph d="M451 1291q0 41 9 91q15 82 51.5 145.5t89.5 106.5t119.5 65t141.5 22q48 0 96 -8t86 -25l-21 -104q-38 20 -76 29.5t-87 9.5q-112 0 -187.5 -63t-95.5 -183q-4 -22 -6 -41.5t-2 -37.5q0 -83 41.5 -124t129.5 -41q19 0 43 2.5t42 8.5l36 182h-143l19 91h255l-68 -341 q-50 -20 -99 -30t-111 -10q-125 0 -194 65.5t-69 189.5z" />
<glyph d="M414 1045l134 667h116l-55 -274h281l55 274h115l-134 -667h-115l60 298h-281l-60 -298h-116z" />
<glyph d="M451 1045l20 94h159l96 480h-160l19 93h438l-19 -93h-161l-95 -480h160l-19 -94h-438z" />
<glyph d="M462 1084l43 94q26 -19 56.5 -32t75.5 -13q63 0 99 34t49 99l71 353h-266l18 93h383l-93 -463q-10 -48 -29.5 -87t-51 -66.5t-75.5 -42.5t-102 -15q-57 0 -99 12.5t-79 33.5z" />
<glyph d="M448 1045l134 667h114l-65 -310l315 310h136l-340 -322l219 -345h-131l-202 338l-66 -338h-114z" />
<glyph d="M458 1045l134 667h116l-115 -573h306l-19 -94h-422z" />
<glyph d="M369 1045l168 667h144l47 -340l184 340h145l-96 -667h-106l94 576l-197 -358h-91l-52 358l-135 -576h-105z" />
<glyph d="M417 1045l134 667h135l116 -391l49 -188l62 390l38 189h101l-134 -667h-136l-112 381l-51 194l-58 -362l-43 -213h-101z" />
<glyph d="M431 1275q0 23 2.5 50t8.5 54q17 89 51 153t79.5 105.5t101 61.5t115.5 20q121 0 183 -65t62 -180q0 -23 -3 -48t-8 -52q-18 -90 -51.5 -154.5t-79 -105.5t-101 -60.5t-116.5 -19.5q-121 0 -182.5 63t-61.5 178zM549 1284q0 -72 32.5 -113t102.5 -41q45 0 81 18t63 50.5 t46 77.5t30 99q5 27 7.5 51.5t2.5 46.5q0 73 -32 112t-101 39q-45 0 -81.5 -18t-64 -50.5t-47 -77.5t-29.5 -99q-5 -26 -7.5 -50t-2.5 -45z" />
<glyph d="M438 1045l134 667h217q54 0 99 -12.5t75 -40t43 -69t3 -98.5q-8 -47 -29.5 -85t-58.5 -65.5t-90 -42.5t-126 -15h-103l-48 -239h-116zM620 1371h76q44 0 79 7t60.5 23t41.5 41t21 62q11 65 -26.5 92.5t-116.5 27.5h-85z" />
<glyph d="M431 1275q0 23 2.5 50t8.5 54q17 89 51 153t79.5 105.5t101 61.5t115.5 20q121 0 183 -65t62 -180q0 -23 -3 -48t-8 -52q-16 -82 -45.5 -143t-69.5 -102t-88.5 -64t-102.5 -29q3 -17 9.5 -34.5t19 -31.5t31.5 -22.5t47 -8.5q29 0 57 8.5t56 27.5l37 -67 q-42 -28 -83 -39.5t-83 -11.5q-87 0 -132.5 48.5t-62.5 133.5q-91 15 -136.5 75.5t-45.5 160.5zM549 1284q0 -72 32.5 -113t102.5 -41q45 0 81 18t63 50.5t46 77.5t30 99q5 27 7.5 51.5t2.5 46.5q0 73 -32 112t-101 39q-45 0 -81.5 -18t-64 -50.5t-47 -77.5t-29.5 -99 q-5 -26 -7.5 -50t-2.5 -45z" />
<glyph d="M448 1045l134 667h218q61 0 102 -14.5t65 -40t31.5 -60.5t0.5 -75q-11 -71 -54 -111.5t-116 -54.5q27 -14 41 -38.5t27 -63.5l71 -209h-127l-61 203q-7 25 -17 41.5t-23.5 26t-31 13t-40.5 3.5h-47l-57 -287h-116zM638 1415h89q71 0 110.5 29t47.5 85q9 54 -21 74.5 t-94 20.5h-90z" />
<glyph d="M434 1058v98q41 -16 90.5 -24.5t115.5 -8.5q32 0 66 3.5t62 14t46 31t18 54.5q0 21 -11 36.5t-30 28.5t-44 24.5t-53 22.5q-35 13 -67.5 28t-58 35.5t-41 48t-15.5 66.5q0 61 28.5 100t72 62t95.5 32t99 9q18 0 39 -1.5t43 -4t44 -6.5t40 -8v-93q-44 13 -86 19t-82 6 q-28 0 -59.5 -4t-58 -14.5t-44 -30.5t-17.5 -51q0 -22 9 -36.5t27 -25.5t43.5 -21.5t58.5 -23.5q34 -14 66.5 -29t58.5 -35.5t42 -48t16 -66.5q0 -64 -27.5 -105t-71 -64.5t-98 -32.5t-108.5 -9q-59 0 -115.5 6.5t-92.5 17.5z" />
<glyph d="M515 1618l19 94h532l-20 -94h-208l-114 -573h-118l115 573h-206z" />
<glyph d="M452.5 1182q-8.5 47 3.5 107l84 423h115l-83 -414q-7 -37 -6 -66.5t14 -50t38.5 -31.5t65.5 -11q39 0 66.5 11t47.5 31.5t33.5 50t20.5 67.5l83 413h114l-88 -434q-10 -55 -32.5 -100t-56.5 -76.5t-82 -48.5t-111 -17q-65 0 -112.5 17t-76.5 49.5t-37.5 79.5z" />
<glyph d="M478 1712h109l67 -440l16 -148l76 148l242 440h116l-378 -667h-134z" />
<glyph d="M414 1045l77 667h103l-75 -569l190 344h66l64 -344l146 569h102l-181 -667h-136l-52 295l-157 -295h-147z" />
<glyph d="M351 1045l310 344l-161 323h115l120 -251l215 251h129l-287 -322l177 -345h-122l-129 268l-229 -268h-138z" />
<glyph d="M474 1712h116l101 -254l28 -88l61 89l196 253h128l-345 -429l-46 -238h-106l46 240z" />
<glyph d="M398 1045l13 67l466 517h-356l16 83h498l-14 -72l-465 -511h373l-16 -84h-515z" />
</font>
</defs>
</svg>
